<?xml version="1.0" encoding="utf-8"?>
<!-- Generator: Adobe Illustrator 24.3.0, SVG Export Plug-In . SVG Version: 6.00 Build 0)  -->
<svg version="1.1" id="Layer_1" xmlns="http://www.w3.org/2000/svg" xmlns:xlink="http://www.w3.org/1999/xlink" x="0px" y="0px"
	 viewBox="0 0 128.11 173.67" style="enable-background:new 0 0 128.11 173.67;" xml:space="preserve">
<style type="text/css">
	.st0{fill:#282828;}
</style>
<g>
	<path class="st0" d="M127.22,41.34l-61.49-41c-0.67-0.45-1.54-0.45-2.21-0.01l-62.62,41C0.34,41.7,0,42.33,0,43v128.67
		c0,1.1,0.9,2,2,2h124.11c1.1,0,2-0.9,2-2V43C128.11,42.33,127.78,41.71,127.22,41.34z M124.11,169.67H66.05v-27H99.3
		c1.1,0,2-0.9,2-2v-29.35c0,0,0,0,0-0.01V60.66c0-0.03-0.01-0.06-0.01-0.08c0-0.11-0.02-0.23-0.04-0.34
		c-0.01-0.05-0.02-0.1-0.04-0.15c-0.03-0.1-0.07-0.19-0.11-0.29c-0.02-0.05-0.04-0.1-0.07-0.14c-0.01-0.02-0.02-0.04-0.03-0.06
		c-0.05-0.09-0.12-0.16-0.18-0.23c-0.02-0.02-0.03-0.05-0.05-0.07c-0.11-0.11-0.23-0.21-0.35-0.3c-0.01,0-0.01-0.01-0.02-0.02
		L65.15,35.99c-0.66-0.43-1.52-0.43-2.19,0L27.72,58.99c-0.57,0.37-0.91,1-0.91,1.67v80.01c0,1.1,0.9,2,2,2h33.24v27H4V44.08
		L64.61,4.4l59.5,39.67V169.67z M97.3,110.02l-31.24,13.59V83.78L97.3,64.27V110.02z M65.16,79.62L54.23,46.47l9.83-6.41
		l31.53,20.57L65.16,79.62z M50.76,48.73l11.3,34.26v15.85L30.81,84.07V61.74L50.76,48.73z M30.81,88.49l31.24,14.78v9.73
		l-14.87-7.1c-1-0.48-2.19-0.05-2.67,0.94c-0.48,1-0.05,2.19,0.94,2.67l16.6,7.93v9.26c0,0,0,0,0,0.01v11.98H30.81V88.49z
		 M66.05,127.98l31.24-13.59v24.28H66.05V127.98z"/>
</g>
</svg>
