<?xml version="1.0" encoding="utf-8"?>
<!-- Generator: Adobe Illustrator 24.3.0, SVG Export Plug-In . SVG Version: 6.00 Build 0)  -->
<svg version="1.1" id="Layer_1" xmlns="http://www.w3.org/2000/svg" xmlns:xlink="http://www.w3.org/1999/xlink" x="0px" y="0px"
	 viewBox="0 0 2652.98 2073.39" style="enable-background:new 0 0 2652.98 2073.39;" xml:space="preserve">
<style type="text/css">
	.st0{fill:#5A5A5A;}
</style>
<g>
	<path class="st0" d="M1251.49,270.84l160.3,92.55c-53.92,31.15-107.87,62.22-161.76,93.4c-53.9-31.18-107.84-62.27-161.76-93.4
		l161.75-93.39L1251.49,270.84L1251.49,270.84z M1400.04,363.39l-150-86.6l-150.01,86.6l149.99,86.6L1400.04,363.39L1400.04,363.39z
		"/>
	<path class="st0" d="M1095.6,540.84l160.3,92.55l-164.71,95.1v-190.2L1095.6,540.84L1095.6,540.84z M1244.15,633.39l-147.06-84.91
		v169.8L1244.15,633.39L1244.15,633.39z"/>
	<polygon class="st0" points="1252.98,453.39 1252.98,633.39 1247.07,633.39 1247.07,453.39 1252.98,453.39 	"/>
	<path class="st0" d="M1407.37,540.84l157.37,90.85c0,62.27,0.03,124.53-0.01,186.8c-106.84-61.75-213.7-123.46-320.6-185.1
		l161.77-93.4L1407.37,540.84L1407.37,540.84z M1558.86,635.09l-152.94-88.3l-150,86.6l302.94,174.9L1558.86,635.09L1558.86,635.09z
		"/>
	<path class="st0" d="M1247.09,1178.49l-147.06,84.9l147.06,84.9L1247.09,1178.49L1247.09,1178.49z M1092.68,1260.85l160.29-92.55
		c0,63.4,0.03,126.79-0.01,190.19l-164.7-95.1L1092.68,1260.85L1092.68,1260.85z"/>
	<polygon class="st0" points="1095.61,725.94 939.74,815.94 936.79,810.84 1092.66,720.84 1095.61,725.94 	"/>
	<polygon class="st0" points="1092.67,900.84 1247.07,811.7 1247.07,633.39 1252.98,633.39 1252.98,815.08 1095.6,905.93 
		1092.67,900.84 	"/>
	<path class="st0" d="M938.27,816.78l-152.96,88.3v173.21l302.95-174.91L938.27,816.78L938.27,816.78z M780.91,900.84L938.27,810
		c53.93,31.1,107.86,62.22,161.76,93.39c-106.89,61.68-213.71,123.43-320.6,185.09c0-62.27,0.1-124.53,0-186.79L780.91,900.84
		L780.91,900.84z"/>
	<polygon class="st0" points="783.84,900.84 939.72,990.83 936.79,995.94 780.91,905.93 783.84,900.84 	"/>
	<polygon class="st0" points="1014.73,855.84 1248.56,720.84 1251.49,725.94 1017.66,860.94 1014.73,855.84 	"/>
	<polygon class="st0" points="1097.1,1083.38 1097.1,1263.39 1091.19,1263.39 1091.19,1083.38 1097.1,1083.38 	"/>
	<path class="st0" d="M1097.1,903.38v174.89l149.97-86.59V813.39h5.91v181.69c-53.97,31.09-107.86,62.27-161.79,93.4v-185.1H1097.1
		L1097.1,903.38z"/>
	<path class="st0" d="M939.73,1170.84l160.3,92.55c-53.92,31.15-107.82,62.3-161.76,93.38c-53.95-31.09-107.86-62.24-161.77-93.38
		c53.94-31.11,107.87-62.21,161.77-93.4L939.73,1170.84L939.73,1170.84z M1088.26,1263.39l-149.99-86.61l-150.02,86.61L938.26,1350
		L1088.26,1263.39L1088.26,1263.39z"/>
	<polygon class="st0" points="1248.55,1530.85 1404.44,1440.84 1407.39,1445.95 1251.51,1535.93 1248.55,1530.85 	"/>
	<path class="st0" d="M1408.86,1441.7l158.81,91.7c-53.9,31.15-107.8,62.32-161.75,93.4c-52.96-30.54-105.91-61.12-158.83-91.72
		c0-61.12,0.1-122.25-0.01-183.39c53.98-31.03,107.87-62.26,161.78-93.41V1441.7L1408.86,1441.7z M1555.91,1533.39l-152.95-88.32
		V1268.5l-150,86.59v176.62l152.95,88.3L1555.91,1533.39L1555.91,1533.39z"/>
	<polygon class="st0" points="1330.93,1308.39 1330.93,1488.39 1325.01,1488.39 1325.01,1308.39 1330.93,1308.39 	"/>
	<path class="st0" d="M1250.03,1889.98l152.94-88.28v-173.22l-302.94,174.9L1250.03,1889.98L1250.03,1889.98z M1407.38,1805.93
		l-157.36,90.84l-161.75-93.38c106.87-61.69,213.76-123.33,320.58-185.1c0.03,62.28,0.01,124.53,0.01,186.79L1407.38,1805.93
		L1407.38,1805.93z"/>
	<polygon class="st0" points="1252.98,1713.38 1252.98,1893.38 1247.07,1893.38 1247.07,1713.38 1252.98,1713.38 	"/>
	<path class="st0" d="M1091.19,1448.49l-147.05,84.9l147.05,84.9V1448.49L1091.19,1448.49z M936.79,1530.85l160.31-92.55v190.21
		l-164.72-95.11L936.79,1530.85L936.79,1530.85z"/>
	<path class="st0" d="M627.95,1350.84l157.37,90.86c0.11,62.28,0.01,124.54,0.01,186.81l-320.61-185.1
		c53.93-31.13,107.88-62.21,161.77-93.4L627.95,1350.84L627.95,1350.84z M779.42,1445.07l-152.93-88.3l-150,86.61l302.94,174.91
		V1445.07L779.42,1445.07z"/>
	<path class="st0" d="M783.84,1620.85l160.31,92.55l-164.7,95.09c0-63.4,0.03-126.79-0.01-190.18L783.84,1620.85L783.84,1620.85z
		 M932.38,1713.38l-147.07-84.9l0.01,169.82L932.38,1713.38L932.38,1713.38z"/>
	<polygon class="st0" points="627.97,1440.84 783.86,1530.85 780.9,1535.93 625.02,1445.95 627.97,1440.84 	"/>
	<polygon class="st0" points="629.44,1533.39 629.44,2073.39 623.54,2073.39 623.54,1533.39 629.44,1533.39 	"/>
	<polygon class="st0" points="623.54,1533.39 623.54,1353.4 629.43,1353.4 629.42,1533.39 623.54,1533.39 	"/>
	<path class="st0" d="M467.65,1448.49l-149.98,86.59v173.22l149.98-86.61V1448.49L467.65,1448.49z M313.24,1530.85l160.31-92.57
		v186.81c-53.91,31.17-107.86,62.27-161.78,93.42V1531.7L313.24,1530.85L313.24,1530.85z"/>
	<polygon class="st0" points="1564.75,813.39 1564.75,993.39 1558.84,993.39 1558.84,813.39 1564.75,813.39 	"/>
	<path class="st0" d="M1561.79,990l152.94-88.3V718.3c53.93,31.11,107.86,62.26,161.78,93.4v183.38
		c-104.99,60.41-209.79,121.2-314.72,181.7c-52.96-30.54-105.91-61.12-158.83-91.7c0-62.25,0.03-124.53,0-186.79L1561.79,990
		L1561.79,990z M1719.14,905.94l-157.35,90.85l-152.95-88.31l0.01,173.21l152.94,88.3l308.81-178.28V815.08l-150-86.59v176.6
		L1719.14,905.94L1719.14,905.94z"/>
	<polygon class="st0" points="1563.26,995.94 1407.38,1085.94 1404.45,1080.84 1560.32,990.85 1563.26,995.94 	"/>
	<polygon class="st0" points="1563.26,990.85 1719.14,1080.84 1716.21,1085.94 1560.32,995.94 1563.26,990.85 	"/>
	<polygon class="st0" points="1875.03,815.94 1719.14,905.94 1716.22,900.84 1872.1,810.84 1875.03,815.94 	"/>
	<polygon class="st0" points="1638.25,1035.85 1872.08,900.84 1875.04,905.94 1641.21,1040.94 1638.25,1035.85 	"/>
	<polygon class="st0" points="1876.52,633.39 1876.52,813.39 1870.61,813.39 1870.61,633.39 1876.52,633.39 	"/>
	<path class="st0" d="M1875.02,450.84l160.31,92.55l-161.76,93.4l-161.78-93.4c53.9-31.15,107.83-62.29,161.77-93.39L1875.02,450.84
		L1875.02,450.84z M2023.56,543.38l-150-86.6l-150,86.6l150.01,86.6L2023.56,543.38L2023.56,543.38z"/>
	<polygon class="st0" points="1720.63,1083.38 1720.63,1263.39 1714.73,1263.39 1714.73,1083.38 1720.63,1083.38 	"/>
	<path class="st0" d="M1714.74,1268.48l-147.07,84.9l147.06,84.92L1714.74,1268.48L1714.74,1268.48z M1560.32,1350.84l160.3-92.53
		c0,63.39,0.03,126.79-0.01,190.19l-164.7-95.09L1560.32,1350.84L1560.32,1350.84z"/>
	<path class="st0" d="M2182.37,638.5l-149.97,86.59v173.2l149.97-86.59V638.5L2182.37,638.5z M2027.97,720.84l160.31-92.56v186.8
		c-53.96,31.08-107.87,62.25-161.78,93.41V721.7L2027.97,720.84L2027.97,720.84z"/>
	<polygon class="st0" points="2110.34,678.38 2110.34,858.39 2104.43,858.39 2104.43,678.38 2110.34,678.38 	"/>
	<path class="st0" d="M1567.66,273.39l155.89,90.01l-164.7,95.1c0-62.26,0.1-124.54-0.01-186.8
		C1715.74,181.19,1872.6,90.62,2029.43,0c52.99,30.49,105.89,61.13,158.84,91.7v181.69h-5.9V95.08L2029.43,6.79L1567.66,273.39
		L1567.66,273.39z M1711.78,363.38l-147.05-84.9v169.81L1711.78,363.38L1711.78,363.38z"/>
	<path class="st0" d="M1716.21,1260.85L2029.43,1080c52.96,30.56,105.86,61.22,158.85,91.7v901.69h-5.91v-898.32l-152.92-88.28
		l-310.29,179.14L1716.21,1260.85L1716.21,1260.85z"/>
	<polygon class="st0" points="1252.98,1893.38 1252.98,2073.39 1247.07,2073.39 1247.07,1893.38 1252.98,1893.38 	"/>
	<polygon class="st0" points="1563.27,1530.85 1720.64,1621.69 1720.64,2073.39 1714.73,2073.39 1714.73,1625.09 1560.33,1535.93 
		1563.27,1530.85 	"/>
	<polygon class="st0" points="1564.75,1533.39 1564.75,2073.39 1558.85,2073.39 1558.85,1533.39 1564.75,1533.39 	"/>
	<polygon class="st0" points="2032.4,1083.4 2032.4,2073.39 2026.49,2073.39 2026.49,1083.4 2032.4,1083.4 	"/>
	<path class="st0" d="M1872.09,450.84L2341.21,180c52.99,30.49,105.9,61.13,158.83,91.69v1801.69h-5.89V275.07l-152.94-88.29
		l-466.19,269.15L1872.09,450.84L1872.09,450.84z"/>
	<polygon class="st0" points="2344.16,183.39 2344.16,2073.39 2338.26,2073.39 2338.26,183.39 2344.16,183.39 	"/>
	<polygon class="st0" points="2032.39,3.39 2032.39,363.39 2026.48,363.39 2026.48,3.39 2032.39,3.39 	"/>
	<polygon class="st0" points="317.67,1713.4 317.67,2073.39 311.77,2073.39 311.77,1713.4 317.67,1713.4 	"/>
	<polygon class="st0" points="2495.62,450.84 2652.98,359.99 2652.98,366.79 2498.57,455.93 2495.62,450.84 	"/>
	<path class="st0" d="M472.08,1080.84l151.45,87.44v-173.2l-152.93-88.3l-308.82,178.3l0,538.31h-5.88l-0.01-541.71
		c105-60.36,209.83-121.09,314.7-181.69c52.99,30.49,105.9,61.13,158.84,91.71v186.79l-160.31-92.55L472.08,1080.84L472.08,1080.84z
		"/>
	<polygon class="st0" points="473.55,903.39 473.55,1443.39 467.65,1443.39 467.65,903.39 473.55,903.39 	"/>
	<path class="st0" d="M313.25,1715.95l-154.41-89.15l-152.94,88.3v358.3H0v-361.68c52.98-30.49,105.96-61.03,158.84-91.69
		l157.34,90.82L313.25,1715.95L313.25,1715.95z"/>
	<polygon class="st0" points="161.79,1623.4 161.79,2073.39 155.89,2073.39 155.89,1623.4 161.79,1623.4 	"/>
	<polygon class="st0" points="2422.1,228.39 2422.1,2073.39 2416.2,2073.39 2416.2,228.39 2422.1,228.39 	"/>
	<polygon class="st0" points="2110.33,48.39 2110.33,318.39 2104.42,318.39 2104.42,48.39 2110.33,48.39 	"/>
	<polygon class="st0" points="2110.34,1128.4 2110.34,2073.39 2104.43,2073.39 2104.43,1128.4 2110.34,1128.4 	"/>
	<polygon class="st0" points="1642.69,1578.39 1642.69,2073.39 1636.79,2073.39 1636.79,1578.39 1642.69,1578.39 	"/>
	<polygon class="st0" points="239.74,1668.4 239.74,2073.39 233.83,2073.39 233.83,1668.4 239.74,1668.4 	"/>
</g>
</svg>
