<?xml version="1.0" encoding="utf-8"?>
<!-- Generator: Adobe Illustrator 24.3.0, SVG Export Plug-In . SVG Version: 6.00 Build 0)  -->
<svg version="1.1" xmlns="http://www.w3.org/2000/svg" xmlns:xlink="http://www.w3.org/1999/xlink" x="0px" y="0px"
	 viewBox="0 0 1088.43 1442.86" style="enable-background:new 0 0 1088.43 1442.86;" xml:space="preserve">
<style type="text/css">
	.st0{clip-path:url(#SVGID_2_);}
	.st1{fill:url(#SVGID_3_);}
	.st2{fill:url(#SVGID_4_);}
	.st3{fill:url(#SVGID_5_);}
	.st4{fill:url(#SVGID_6_);}
	.st5{fill:url(#SVGID_7_);}
	.st6{fill:url(#SVGID_8_);}
	.st7{fill:url(#SVGID_9_);}
	.st8{fill:url(#SVGID_10_);}
	.st9{fill:url(#SVGID_11_);}
	.st10{fill:url(#SVGID_12_);}
	.st11{fill:url(#SVGID_13_);}
	.st12{fill:url(#SVGID_14_);}
	.st13{fill:url(#SVGID_15_);}
	.st14{fill:url(#SVGID_16_);}
	.st15{fill:url(#SVGID_17_);}
	.st16{fill:url(#SVGID_18_);}
	.st17{fill:url(#SVGID_19_);}
	.st18{fill:url(#SVGID_20_);}
	.st19{fill:url(#SVGID_21_);}
	.st20{fill:url(#SVGID_22_);}
	.st21{fill:url(#SVGID_23_);}
	.st22{fill:url(#SVGID_24_);}
	.st23{fill:url(#SVGID_25_);}
	.st24{fill:url(#SVGID_26_);}
	.st25{fill:url(#SVGID_27_);}
	.st26{fill:url(#SVGID_28_);}
	.st27{fill:url(#SVGID_29_);}
	.st28{fill:url(#SVGID_30_);}
	.st29{fill:url(#SVGID_31_);}
	.st30{fill:url(#SVGID_32_);}
	.st31{fill:url(#SVGID_33_);}
	.st32{fill:url(#SVGID_34_);}
	.st33{fill:url(#SVGID_35_);}
	.st34{fill:url(#SVGID_36_);}
	.st35{fill:url(#SVGID_37_);}
	.st36{fill:url(#SVGID_38_);}
	.st37{fill:url(#SVGID_39_);}
	.st38{fill:url(#SVGID_40_);}
	.st39{fill:url(#SVGID_41_);}
	.st40{fill:url(#SVGID_42_);}
	.st41{fill:url(#SVGID_43_);}
	.st42{fill:url(#SVGID_44_);}
	.st43{fill:url(#SVGID_45_);}
	.st44{fill:url(#SVGID_46_);}
	.st45{fill:url(#SVGID_47_);}
	.st46{fill:url(#SVGID_48_);}
	.st47{fill:url(#SVGID_49_);}
	.st48{fill:url(#SVGID_50_);}
	.st49{fill:url(#SVGID_51_);}
	.st50{fill:url(#SVGID_52_);}
	.st51{fill:url(#SVGID_53_);}
	.st52{fill:url(#SVGID_54_);}
	.st53{fill:url(#SVGID_55_);}
	.st54{fill:url(#SVGID_56_);}
	.st55{fill:url(#SVGID_57_);}
	.st56{fill:url(#SVGID_58_);}
	.st57{fill:url(#SVGID_59_);}
	.st58{fill:url(#SVGID_60_);}
	.st59{fill:url(#SVGID_61_);}
	.st60{fill:url(#SVGID_62_);}
	.st61{fill:url(#SVGID_63_);}
	.st62{fill:url(#SVGID_64_);}
	.st63{fill:url(#SVGID_65_);}
	.st64{fill:url(#SVGID_66_);}
	.st65{fill:url(#SVGID_67_);}
	.st66{fill:url(#SVGID_68_);}
	.st67{fill:url(#SVGID_69_);}
	.st68{fill:url(#SVGID_70_);}
	.st69{fill:url(#SVGID_71_);}
	.st70{fill:url(#SVGID_72_);}
	.st71{fill:url(#SVGID_73_);}
</style>
<g id="grey_background">
</g>
<g id="white_background">
</g>
<g id="line_pattern">
	<g>
		<defs>
			<rect id="SVGID_1_" y="17.61" width="1088.43" height="1553.5"/>
		</defs>
		<clipPath id="SVGID_2_">
			<use xlink:href="#SVGID_1_"  style="overflow:visible;"/>
		</clipPath>
		<g class="st0">
			<linearGradient id="SVGID_3_" gradientUnits="userSpaceOnUse" x1="461.0063" y1="662.4626" x2="461.0633" y2="662.4057">
				<stop  offset="0" style="stop-color:#FFFFFF"/>
				<stop  offset="0.3581" style="stop-color:#939598"/>
				<stop  offset="0.5361" style="stop-color:#A2A4A6"/>
				<stop  offset="0.662" style="stop-color:#A7A9AC"/>
				<stop  offset="1" style="stop-color:#FFFFFF"/>
			</linearGradient>
			<path class="st1" d="M461.04,662.48c0.04,0,0.03-0.1,0-0.1C461,662.38,461,662.48,461.04,662.48L461.04,662.48z"/>
		</g>
		<g class="st0">
			<g>
				<linearGradient id="SVGID_4_" gradientUnits="userSpaceOnUse" x1="29.3207" y1="1525.2297" x2="1087.5681" y2="466.9823">
					<stop  offset="0" style="stop-color:#FFFFFF"/>
					<stop  offset="0.3581" style="stop-color:#939598"/>
					<stop  offset="0.5361" style="stop-color:#A2A4A6"/>
					<stop  offset="0.662" style="stop-color:#A7A9AC"/>
					<stop  offset="1" style="stop-color:#FFFFFF"/>
				</linearGradient>
				<path class="st2" d="M-24.3,1471.42c61.16-78.66,129.2-151.92,203.28-218.56c75.06-67.52,156.18-127.53,241.63-181.22
					c89.3-56.12,182.06-106.43,272.56-160.54c83.15-49.72,164.54-102.93,238.39-165.87c69.84-59.52,132.99-127.82,180.51-206.65
					c5.85-9.71,11.44-19.58,16.8-29.57c0.12-0.22-0.06-1.1-0.22-0.8c-44.21,82.13-105.27,153.74-174.39,215.97
					c-71.12,64.04-150.29,118.26-231.78,168.14c-89.95,55.06-182.77,105.28-272.77,160.26c-86.74,52.99-169.77,111.38-246.65,177.98
					C128.73,1294.93,60,1365.81-1.93,1442.21c-7.64,9.42-15.16,18.93-22.59,28.51C-24.68,1470.92-24.52,1471.71-24.3,1471.42
					L-24.3,1471.42z"/>
			</g>
			<g>
				<linearGradient id="SVGID_5_" gradientUnits="userSpaceOnUse" x1="29.7434" y1="1516.913" x2="1086.6724" y2="459.984">
					<stop  offset="0" style="stop-color:#FFFFFF"/>
					<stop  offset="0.3581" style="stop-color:#939598"/>
					<stop  offset="0.5361" style="stop-color:#A2A4A6"/>
					<stop  offset="0.662" style="stop-color:#A7A9AC"/>
					<stop  offset="1" style="stop-color:#FFFFFF"/>
				</linearGradient>
				<path class="st3" d="M-24.22,1462.81c60.89-77.11,126.9-149.93,198.63-217.12c72.15-67.57,149.57-129.46,231.36-184.98
					c86.59-58.78,178.64-108.35,269.95-159.26c88.56-49.37,176.57-100.78,255.64-164.63c71.62-57.83,136.3-125.9,181.84-206.39
					c5.25-9.27,10.21-18.7,14.94-28.25c0.13-0.26-0.08-1.25-0.34-0.74c-41.69,84.27-104.36,156.09-175.53,216.84
					c-76.03,64.9-161.56,117.17-248.38,166.21c-91.79,51.85-185.32,100.75-273.54,158.65c-81.84,53.71-159.47,113.85-232.06,179.52
					c-72.11,65.24-139.27,136-200.49,211.57c-7.51,9.27-14.91,18.62-22.2,28.06C-24.5,1462.43-24.39,1463.02-24.22,1462.81
					L-24.22,1462.81z"/>
			</g>
			<g>
				<linearGradient id="SVGID_6_" gradientUnits="userSpaceOnUse" x1="14.4688" y1="1465.2665" x2="625.3898" y2="854.3455">
					<stop  offset="0" style="stop-color:#FFFFFF"/>
					<stop  offset="0.3581" style="stop-color:#939598"/>
					<stop  offset="0.5361" style="stop-color:#A2A4A6"/>
					<stop  offset="0.662" style="stop-color:#A7A9AC"/>
					<stop  offset="1" style="stop-color:#FFFFFF"/>
				</linearGradient>
				<path class="st4" d="M-8.98,1441.56c10.56-24.76,27.1-46.32,44.91-66.29c18.2-20.41,37.4-39.97,56.36-59.68
					c38.61-40.14,77.83-79.73,118.55-117.74c40.87-38.15,83.27-74.71,127.89-108.41c46.18-34.87,94.96-65.53,145-94.52
					c52.96-30.68,106.31-60.71,159.03-91.82c6.53-3.85,13.08-7.66,19.64-11.45c0.09-0.05,0.05-0.37-0.05-0.32
					c-53.53,30.73-107.21,61.2-160.71,91.99c-50.91,29.29-101.16,59.41-148.57,94.18c-44.64,32.74-87.06,68.44-127.88,105.82
					c-41.23,37.75-80.85,77.23-119.74,117.37c-19.36,19.99-38.66,40.05-57.67,60.37c-18,19.24-35.55,39.27-48.49,62.35
					c-3.19,5.69-6.01,11.6-8.55,17.61C-9.36,1441.26-9.15,1441.95-8.98,1441.56L-8.98,1441.56z"/>
			</g>
			<g>
				<linearGradient id="SVGID_7_" gradientUnits="userSpaceOnUse" x1="25.8881" y1="1387.2306" x2="428.7531" y2="984.3657">
					<stop  offset="0" style="stop-color:#FFFFFF"/>
					<stop  offset="0.3581" style="stop-color:#939598"/>
					<stop  offset="0.5361" style="stop-color:#A2A4A6"/>
					<stop  offset="0.662" style="stop-color:#A7A9AC"/>
					<stop  offset="1" style="stop-color:#FFFFFF"/>
				</linearGradient>
				<path class="st5" d="M20.66,1381.83c21.33-30.51,44.57-59.67,69.27-87.51c24.55-27.66,50.55-54.01,77.6-79.23
					c27.33-25.48,55.71-49.8,84.8-73.25c29.23-23.56,59.16-46.23,89.51-68.32c30.14-21.94,60.69-43.31,91.43-64.4
					c3.81-2.62,7.62-5.25,11.41-7.9c0.26-0.18,0.13-1.15-0.15-0.96c-31.12,20.88-61.81,42.46-92.21,64.37
					c-30.46,21.96-60.53,44.48-89.91,67.86c-29.02,23.09-57.38,47.02-84.76,72.05c-27.4,25.05-53.81,51.2-78.8,78.65
					c-25.08,27.55-48.7,56.4-70.41,86.68c-2.69,3.75-5.35,7.52-7.98,11.31C20.32,1381.39,20.47,1382.09,20.66,1381.83L20.66,1381.83
					z"/>
			</g>
			<g>
				<linearGradient id="SVGID_8_" gradientUnits="userSpaceOnUse" x1="797.2031" y1="832.2482" x2="1133.5205" y2="495.9308">
					<stop  offset="0" style="stop-color:#FFFFFF"/>
					<stop  offset="0.3581" style="stop-color:#939598"/>
					<stop  offset="0.5361" style="stop-color:#A2A4A6"/>
					<stop  offset="0.662" style="stop-color:#A7A9AC"/>
					<stop  offset="1" style="stop-color:#FFFFFF"/>
				</linearGradient>
				<path class="st6" d="M786.34,821.29c25.63-17.81,50.85-36.25,75.75-55.06c24.86-18.78,49.33-38.06,73.24-58.03
					c23.8-19.88,47.05-40.43,69.54-61.78c22.48-21.33,44.2-43.47,64.89-66.54c20.69-23.08,40.36-47.07,58.75-72.02
					c2.28-3.09,4.53-6.2,6.75-9.34c0.19-0.26-0.02-1.28-0.29-0.91c-18.26,25.07-37.47,49.37-57.92,72.68
					c-20.44,23.3-41.91,45.69-64.18,67.25c-22.38,21.67-45.57,42.51-69.34,62.65c-23.7,20.08-47.97,39.5-72.63,58.39
					c-24.74,18.95-49.9,37.34-75.26,55.45c-3.13,2.23-6.26,4.47-9.38,6.7C786.09,820.86,786.17,821.42,786.34,821.29L786.34,821.29z
					"/>
			</g>
			<g>
				<linearGradient id="SVGID_9_" gradientUnits="userSpaceOnUse" x1="912.7108" y1="709.0549" x2="1152.7296" y2="469.0361">
					<stop  offset="0" style="stop-color:#FFFFFF"/>
					<stop  offset="0.3581" style="stop-color:#939598"/>
					<stop  offset="0.5361" style="stop-color:#A2A4A6"/>
					<stop  offset="0.662" style="stop-color:#A7A9AC"/>
					<stop  offset="1" style="stop-color:#FFFFFF"/>
				</linearGradient>
				<path class="st7" d="M916.02,712.2c15.41-15.81,30.78-31.65,46.13-47.52c15.29-15.82,30.55-31.68,45.75-47.58
					c15.21-15.91,30.39-31.86,45.54-47.83c15.2-16.03,30.38-32.1,45.52-48.19c15.09-16.04,30.18-32.07,45.15-48.21
					c1.85-2,3.71-4,5.56-6c0.22-0.24,0.04-1.27-0.28-0.92c-15.12,16.11-30.19,32.26-45.32,48.36
					c-15.08,16.05-30.19,32.06-45.33,48.05c-15.14,15.99-30.31,31.94-45.52,47.87c-15.27,15.99-30.54,31.97-45.85,47.92
					c-15.26,15.9-30.54,31.78-45.85,47.63c-1.89,1.96-3.79,3.92-5.68,5.87C915.69,711.78,915.8,712.41,916.02,712.2L916.02,712.2z"
					/>
			</g>
			<g>
				<linearGradient id="SVGID_10_" gradientUnits="userSpaceOnUse" x1="984.2028" y1="623.5317" x2="1144.6932" y2="463.0412">
					<stop  offset="0" style="stop-color:#FFFFFF"/>
					<stop  offset="0.3581" style="stop-color:#939598"/>
					<stop  offset="0.5361" style="stop-color:#A2A4A6"/>
					<stop  offset="0.662" style="stop-color:#A7A9AC"/>
					<stop  offset="1" style="stop-color:#FFFFFF"/>
				</linearGradient>
				<path class="st8" d="M987.68,626.9c19.12-22.46,38.71-44.56,58.55-66.39c19.77-21.76,39.88-43.2,60.36-64.3
					c11.59-11.94,23.57-23.55,35-35.64c0.15-0.16,0.06-0.89-0.2-0.66c-10.86,10.08-21.11,20.86-31.45,31.47
					c-10.26,10.53-20.43,21.15-30.51,31.85c-20.17,21.42-39.95,43.19-59.37,65.29c-11,12.53-21.76,25.25-32.5,38
					C987.47,626.63,987.55,627.05,987.68,626.9L987.68,626.9z"/>
			</g>
		</g>
		<g class="st0">
			<g>
				<linearGradient id="SVGID_11_" gradientUnits="userSpaceOnUse" x1="-25.2787" y1="1499.3888" x2="1096.785" y2="377.325">
					<stop  offset="0" style="stop-color:#FFFFFF"/>
					<stop  offset="0.2855" style="stop-color:#939598"/>
					<stop  offset="0.4373" style="stop-color:#A2A4A6"/>
					<stop  offset="0.5447" style="stop-color:#A7A9AC"/>
					<stop  offset="1" style="stop-color:#FFFFFF"/>
				</linearGradient>
				<path class="st9" d="M-35.78,1488.63c36.6-99.14,90.94-191.21,160.73-270.64c68.98-78.52,152.26-141.01,242.14-193.68
					c88.97-52.14,182.63-95.55,273.79-143.6c90.67-47.79,179.69-100.65,255.94-169.77c83.8-75.96,149.63-169,212.49-262.34
					c7.77-11.54,15.5-23.1,23.2-34.69c0.17-0.25-0.03-1.29-0.26-0.94c-63.47,94.3-126.92,189.63-207.84,270.17
					c-74.55,74.21-163.31,131.09-255.35,181.07c-91.17,49.5-185.5,92.98-275.92,143.89c-90,50.66-175.15,109.57-246.5,184.76
					C74.79,1268.57,16.9,1357.5-22.94,1453.97c-4.66,11.29-9.03,22.7-13.16,34.2C-36.18,1488.38-35.92,1489-35.78,1488.63
					L-35.78,1488.63z"/>
			</g>
			<g>
				<linearGradient id="SVGID_12_" gradientUnits="userSpaceOnUse" x1="-35.2858" y1="1487.2296" x2="1106.0387" y2="345.9051">
					<stop  offset="0" style="stop-color:#FFFFFF"/>
					<stop  offset="0.2855" style="stop-color:#939598"/>
					<stop  offset="0.4373" style="stop-color:#A2A4A6"/>
					<stop  offset="0.5447" style="stop-color:#A7A9AC"/>
					<stop  offset="1" style="stop-color:#FFFFFF"/>
				</linearGradient>
				<path class="st10" d="M-37.59,1484.64c39.23-96.55,87.2-190.57,151.49-273c32.18-41.26,68.45-79.11,108.63-112.63
					c40.59-33.87,84.55-63.48,129.86-90.65c91.69-54.98,188.66-100.43,281.56-153.26c51.26-29.15,101.6-59.89,150.94-92.18
					c45.35-29.67,90-60.63,131.48-95.57c41.05-34.57,78.19-73.15,110.05-116.39c33-44.78,60.81-93.08,87.49-141.8
					c6.43-11.74,12.79-23.51,19.15-35.28c0.16-0.29-0.08-1.43-0.29-1.05c-26.44,48.91-52.95,97.91-83.74,144.26
					c-30.57,46.01-65.7,88.31-106.38,125.74c-40.28,37.06-84.53,69.54-129.85,100.12c-47.99,32.38-97.11,63.11-147.05,92.38
					c-93.9,55.04-192.23,101.88-286.58,156.08c-90.48,51.97-175.67,112.64-243.76,192.46c-67.28,78.86-117.87,170.53-158.78,265.38
					c-4.98,11.54-9.81,23.15-14.53,34.8C-38.02,1484.3-37.77,1485.08-37.59,1484.64L-37.59,1484.64z"/>
			</g>
			<g>
				<linearGradient id="SVGID_13_" gradientUnits="userSpaceOnUse" x1="-23.1772" y1="1450.2729" x2="1110.6237" y2="316.4721">
					<stop  offset="0" style="stop-color:#FFFFFF"/>
					<stop  offset="0.2855" style="stop-color:#939598"/>
					<stop  offset="0.4373" style="stop-color:#A2A4A6"/>
					<stop  offset="0.5447" style="stop-color:#A7A9AC"/>
					<stop  offset="1" style="stop-color:#FFFFFF"/>
				</linearGradient>
				<path class="st11" d="M-24.05,1448.93c35.28-102.55,88.61-198.53,157.12-282.61c34.22-42,72.17-80.98,113.32-116.23
					c43.06-36.88,89.56-69.56,137.67-99.48c97.17-60.43,200.6-109.73,301.27-163.87c92.14-49.55,182.04-104.1,261.04-173.19
					c74.4-65.07,139.07-143.32,176.97-235.35c4.78-11.6,9.08-23.38,12.96-35.31c0.1-0.29-0.19-1.38-0.38-0.81
					c-32.21,97.41-93.83,181.24-168.27,250.8c-76.27,71.27-164.61,127.87-255.76,178.06c-100.2,55.17-203.85,104.03-302.14,162.67
					c-94.99,56.67-183.09,123.47-256.15,206.97c-70.18,80.21-126.42,172.64-165.04,271.99c-4.61,11.86-8.95,23.83-13.05,35.88
					C-24.61,1448.81-24.25,1449.52-24.05,1448.93L-24.05,1448.93z"/>
			</g>
			<g>
				<linearGradient id="SVGID_14_" gradientUnits="userSpaceOnUse" x1="91.4546" y1="1312.7214" x2="1120.2034" y2="283.9727">
					<stop  offset="0" style="stop-color:#FFFFFF"/>
					<stop  offset="0.2855" style="stop-color:#939598"/>
					<stop  offset="0.4373" style="stop-color:#A2A4A6"/>
					<stop  offset="0.5447" style="stop-color:#A7A9AC"/>
					<stop  offset="1" style="stop-color:#FFFFFF"/>
				</linearGradient>
				<path class="st12" d="M51.7,1272.74c51.63-83.15,113.11-159.94,183.5-227.98c72.2-69.79,153.28-128.37,239.38-179.78
					c89.11-53.2,181.97-99.72,271.9-151.48c80.63-46.41,158.9-97.57,228.23-159.93c65.89-59.27,123.67-128.83,161.66-209.35
					c4.69-9.94,9.04-20.02,13.07-30.25c0.12-0.3-0.15-1.4-0.38-0.82c-34.22,84.72-89.53,158.49-155.35,221.3
					c-66.52,63.49-142.64,115.89-221.59,162.63c-89.31,52.88-182.2,99.38-271.99,151.41c-86.23,49.97-168.52,105.96-242.11,173.42
					c-71.71,65.73-135.26,140.41-188.5,221.82c-6.16,9.43-12.18,18.95-18.05,28.56C51.36,1272.47,51.51,1273.04,51.7,1272.74
					L51.7,1272.74z"/>
			</g>
			<g>
				<linearGradient id="SVGID_15_" gradientUnits="userSpaceOnUse" x1="229.1347" y1="1145.0536" x2="1118.0251" y2="256.163">
					<stop  offset="0" style="stop-color:#FFFFFF"/>
					<stop  offset="0.2855" style="stop-color:#939598"/>
					<stop  offset="0.4373" style="stop-color:#A2A4A6"/>
					<stop  offset="0.5447" style="stop-color:#A7A9AC"/>
					<stop  offset="1" style="stop-color:#FFFFFF"/>
				</linearGradient>
				<path class="st13" d="M173.32,1089.11c52.46-66.06,114.93-123.41,182.03-174.28c67.4-51.1,139.2-95.98,211.87-139.11
					c71.67-42.54,144.41-83.3,215.23-127.26c69.87-43.37,138.14-89.75,201.08-142.81c61.66-51.99,118.02-110.65,163.52-177.43
					c5.75-8.44,11.3-17.01,16.67-25.71c0.12-0.2-0.03-1-0.2-0.72c-43.6,69.65-98.58,131.07-160.05,185.41
					c-61.8,54.63-129.5,102.18-199.08,146.3c-70.24,44.53-142.66,85.43-214.34,127.57c-72.69,42.73-144.82,86.79-212.95,136.59
					c-66.91,48.91-130.07,103.56-183.97,166.7c-6.8,7.97-13.45,16.07-19.95,24.29C173.07,1088.79,173.17,1089.3,173.32,1089.11
					L173.32,1089.11z"/>
			</g>
			<g>
				<linearGradient id="SVGID_16_" gradientUnits="userSpaceOnUse" x1="679.3593" y1="732.4323" x2="1163.9645" y2="247.8271">
					<stop  offset="0" style="stop-color:#FFFFFF"/>
					<stop  offset="0.2855" style="stop-color:#939598"/>
					<stop  offset="0.4373" style="stop-color:#A2A4A6"/>
					<stop  offset="0.5447" style="stop-color:#A7A9AC"/>
					<stop  offset="1" style="stop-color:#FFFFFF"/>
				</linearGradient>
				<path class="st14" d="M649.9,702.89c40.95-24.36,81.9-48.72,122.36-73.89c40.15-24.97,79.82-50.75,118.46-78.02
					c36.83-26,72.73-53.37,107.06-82.61c32.69-27.85,63.98-57.4,93.16-88.92c29.3-31.65,56.5-65.3,80.64-101.06
					c3-4.44,5.92-8.94,8.82-13.45c0.13-0.2-0.03-1.02-0.21-0.74c-23.53,36-49.79,70.11-78.42,102.19
					c-28.88,32.37-60.01,62.69-92.65,91.25c-33.59,29.38-68.79,56.88-105,82.94c-38.38,27.63-77.88,53.67-117.89,78.86
					c-40.06,25.22-80.65,49.58-121.28,73.85c-5.04,3.01-10.09,6.02-15.13,9.03C649.66,702.44,649.73,703,649.9,702.89L649.9,702.89z
					"/>
			</g>
			<g>
				<linearGradient id="SVGID_17_" gradientUnits="userSpaceOnUse" x1="974.4705" y1="458.6456" x2="1172.694" y2="260.4221">
					<stop  offset="0" style="stop-color:#FFFFFF"/>
					<stop  offset="0.2855" style="stop-color:#939598"/>
					<stop  offset="0.4373" style="stop-color:#A2A4A6"/>
					<stop  offset="0.5447" style="stop-color:#A7A9AC"/>
					<stop  offset="1" style="stop-color:#FFFFFF"/>
				</linearGradient>
				<path class="st15" d="M981.88,466c13.61-12.1,26.89-24.56,39.84-37.36c13.04-12.9,25.74-26.16,38.07-39.75
					c12.33-13.58,24.3-27.49,35.91-41.69c11.61-14.21,22.82-28.74,33.64-43.56c10.78-14.76,21.18-29.81,31.14-45.13
					c1.26-1.94,2.5-3.89,3.72-5.86c0.12-0.2-0.02-1.06-0.21-0.76c-5.11,7.6-10.06,15.31-15.21,22.88
					c-5.12,7.53-10.34,14.99-15.66,22.38c-10.68,14.84-21.76,29.4-33.19,43.67c-11.44,14.28-23.25,28.26-35.44,41.9
					c-12.18,13.64-24.73,26.96-37.6,39.95c-12.97,13.09-26.3,25.83-39.95,38.21c-1.7,1.54-3.41,3.08-5.12,4.61
					C981.68,465.6,981.77,466.1,981.88,466L981.88,466z"/>
			</g>
		</g>
		<g class="st0">
			<g>
				<linearGradient id="SVGID_18_" gradientUnits="userSpaceOnUse" x1="524.9584" y1="1504.6276" x2="524.9584" y2="25.6633">
					<stop  offset="0" style="stop-color:#FFFFFF"/>
					<stop  offset="0.3581" style="stop-color:#939598"/>
					<stop  offset="0.5361" style="stop-color:#A2A4A6"/>
					<stop  offset="0.662" style="stop-color:#A7A9AC"/>
					<stop  offset="1" style="stop-color:#FFFFFF"/>
				</linearGradient>
				<path class="st16" d="M-54.2,1504.44c30.45-118.24,76.81-232.2,137.35-338.23c60.52-106,135.09-204.01,221.46-290.27
					c94.34-94.22,202.96-172.07,312.3-247.71c55.23-38.21,110.77-76,165.12-115.47c52.47-38.1,104.16-77.67,151.14-122.48
					c88.7-84.61,162.3-194.29,170.61-319.84c0.98-14.75,0.95-29.52,0.02-44.27c-0.04-0.67-0.53-0.67-0.48,0.01
					c8.42,132.26-62.01,253.6-152.02,345c-45.93,46.64-97.34,87.44-149.93,126.25c-53.68,39.62-108.7,77.35-163.61,115.23
					c-108.16,74.61-216.47,150.22-311.73,241.2c-86.58,82.69-162.01,176.96-224.17,279.25C39.69,1235.39-9.28,1345.8-42.75,1460.74
					c-4.18,14.37-8.11,28.81-11.83,43.31C-54.65,1504.34-54.33,1504.93-54.2,1504.44L-54.2,1504.44z"/>
			</g>
			<g>
				<linearGradient id="SVGID_19_" gradientUnits="userSpaceOnUse" x1="550.0585" y1="1494.5415" x2="550.0585" y2="27.3426">
					<stop  offset="0" style="stop-color:#FFFFFF"/>
					<stop  offset="0.3581" style="stop-color:#939598"/>
					<stop  offset="0.5361" style="stop-color:#A2A4A6"/>
					<stop  offset="0.662" style="stop-color:#A7A9AC"/>
					<stop  offset="1" style="stop-color:#FFFFFF"/>
				</linearGradient>
				<path class="st17" d="M-40.75,1494.38c29.89-124.3,82.61-242.07,151.14-349.78c68.91-108.3,153.39-206,246.76-293.86
					c95.33-89.7,199.69-169.11,308.04-242.35c107.55-72.7,219.3-142.29,310.64-235.63c80.83-82.6,146.58-187.04,162.06-303.38
					c1.83-13.78,2.89-27.64,3.28-41.54c0.02-0.67-0.45-0.65-0.46,0.01c-3.47,123.33-66.14,236.47-147.8,325.83
					c-88.44,96.78-200.22,167.84-308.2,240.48c-106.59,71.7-209.94,148.09-304.97,234.71c-94.04,85.72-179.88,180.91-250.97,286.62
					c-68.88,102.43-124.21,214.7-158.13,333.59c-4.25,14.9-8.14,29.9-11.72,44.99C-41.12,1494.3-40.85,1494.8-40.75,1494.38
					L-40.75,1494.38z"/>
			</g>
			<g>
				<linearGradient id="SVGID_20_" gradientUnits="userSpaceOnUse" x1="608.3936" y1="1274.3995" x2="608.3936" y2="126.1329">
					<stop  offset="0" style="stop-color:#FFFFFF"/>
					<stop  offset="0.3581" style="stop-color:#939598"/>
					<stop  offset="0.5361" style="stop-color:#A2A4A6"/>
					<stop  offset="0.662" style="stop-color:#A7A9AC"/>
					<stop  offset="1" style="stop-color:#FFFFFF"/>
				</linearGradient>
				<path class="st18" d="M54.29,1274.31c45.31-94.11,103.8-181.28,170.82-261.28c67.53-80.6,143.43-153.86,223.57-221.82
					c79.77-67.64,163.82-130.05,249.65-189.74c88.51-61.56,179.55-120.06,261.96-189.87c40.16-34.02,78.15-70.72,111.89-111.17
					c34.26-41.09,66.47-86.56,82.56-138.14c3.63-11.65,6.31-23.53,8.01-35.62c0.06-0.41-0.31-0.85-0.4-0.24
					c-8.25,56.27-38.3,106.01-72.38,150.42c-32.81,42.77-70.55,81.53-110.88,117.23C898.54,465.4,808.31,524.5,719.89,585.36
					c-86.13,59.28-170.62,121.11-251.08,187.93c-79.54,66.05-155.21,137.09-223.29,214.99c-67.51,77.25-126.83,161.29-174.65,252.13
					c-5.82,11.05-11.38,22.23-16.8,33.48C53.98,1274.07,54.14,1274.61,54.29,1274.31L54.29,1274.31z"/>
			</g>
			<g>
				<linearGradient id="SVGID_21_" gradientUnits="userSpaceOnUse" x1="720.2613" y1="975.9879" x2="720.2613" y2="206.969">
					<stop  offset="0" style="stop-color:#FFFFFF"/>
					<stop  offset="0.3581" style="stop-color:#939598"/>
					<stop  offset="0.5361" style="stop-color:#A2A4A6"/>
					<stop  offset="0.662" style="stop-color:#A7A9AC"/>
					<stop  offset="1" style="stop-color:#FFFFFF"/>
				</linearGradient>
				<path class="st19" d="M277.12,975.94c50.94-58.18,106.57-112.09,164.93-162.77c57.98-50.35,118.57-97.59,180.07-143.53
					c61.82-46.17,124.59-91.04,186.89-136.54c62.26-45.48,124.04-91.66,183.92-140.24c29.66-24.07,59.22-48.48,87.14-74.57
					c27.42-25.63,53.26-53.69,71.8-86.55c4.39-7.78,8.29-15.81,11.72-24.07c0.09-0.21-0.1-1.01-0.28-0.59
					c-15.31,35.54-39.22,66.16-66.27,93.53c-27.35,27.67-57.43,52.72-87.37,77.52c-59.18,49.03-120.58,95.31-182.52,140.77
					c-62.01,45.52-124.62,90.21-186.43,136c-61.52,45.58-122.28,92.26-180.64,141.86c-57.77,49.11-113.25,101.08-164.17,157.31
					c-6.39,7.06-12.7,14.18-18.95,21.36C276.83,975.58,276.94,976.15,277.12,975.94L277.12,975.94z"/>
			</g>
			<g>
				<linearGradient id="SVGID_22_" gradientUnits="userSpaceOnUse" x1="739.2316" y1="888.4149" x2="739.2316" y2="316.513">
					<stop  offset="0" style="stop-color:#FFFFFF"/>
					<stop  offset="0.3581" style="stop-color:#939598"/>
					<stop  offset="0.5361" style="stop-color:#A2A4A6"/>
					<stop  offset="0.662" style="stop-color:#A7A9AC"/>
					<stop  offset="1" style="stop-color:#FFFFFF"/>
				</linearGradient>
				<path class="st20" d="M374.79,888.36c44.98-40.82,91.61-79.79,139.2-117.53c47.12-37.36,95.22-73.47,143.59-109.18
					c48.44-35.76,97.22-71.06,145.77-106.67c48.53-35.59,96.84-71.48,144.37-108.39c47.48-36.87,94.17-74.77,139.4-114.38
					c5.65-4.95,11.25-9.96,16.82-15c0.16-0.15,0.05-0.81-0.1-0.68c-45.33,39.82-91.61,78.45-139.07,115.71
					c-47.49,37.29-95.87,73.43-144.52,109.19c-48.69,35.79-97.65,71.19-146.34,106.98c-48.66,35.77-97,71.98-144.51,109.27
					c-47.13,36.98-93.41,75.06-138.15,114.89c-5.59,4.98-11.16,9.99-16.71,15.02C374.33,887.79,374.48,888.64,374.79,888.36
					L374.79,888.36z"/>
			</g>
			<g>
				<linearGradient id="SVGID_23_" gradientUnits="userSpaceOnUse" x1="762.0347" y1="833.4484" x2="762.0347" y2="361.6772">
					<stop  offset="0" style="stop-color:#FFFFFF"/>
					<stop  offset="0.3581" style="stop-color:#939598"/>
					<stop  offset="0.5361" style="stop-color:#A2A4A6"/>
					<stop  offset="0.662" style="stop-color:#A7A9AC"/>
					<stop  offset="1" style="stop-color:#FFFFFF"/>
				</linearGradient>
				<path class="st21" d="M449.66,833.43c40.82-30.32,81.44-60.9,122.09-91.44c40.67-30.55,81.32-61.13,121.97-91.72
					c40.81-30.71,81.6-61.43,122.38-92.19c40.44-30.51,80.87-61.03,121.28-91.58c40.75-30.8,81.48-61.63,122.18-92.49
					c4.96-3.76,9.93-7.53,14.89-11.29c0.27-0.21,0.11-1.22-0.16-1.02c-40.55,30.72-81.11,61.42-121.67,92.11
					c-40.57,30.7-81.16,61.37-121.76,92.02c-40.77,30.78-81.55,61.54-122.35,92.28c-40.46,30.49-80.96,60.94-121.46,91.38
					c-40.84,30.69-81.71,61.34-122.54,92.05c-4.99,3.75-9.95,7.54-14.94,11.31C449.4,832.98,449.49,833.56,449.66,833.43
					L449.66,833.43z"/>
			</g>
			<g>
				<linearGradient id="SVGID_24_" gradientUnits="userSpaceOnUse" x1="803.1769" y1="749.7356" x2="803.1769" y2="407.437">
					<stop  offset="0" style="stop-color:#FFFFFF"/>
					<stop  offset="0.3581" style="stop-color:#939598"/>
					<stop  offset="0.5361" style="stop-color:#A2A4A6"/>
					<stop  offset="0.662" style="stop-color:#A7A9AC"/>
					<stop  offset="1" style="stop-color:#FFFFFF"/>
				</linearGradient>
				<path class="st22" d="M574.33,749.72c30.6-21.13,61.04-42.49,91.32-64.08c30.27-21.58,60.44-43.29,90.43-65.25
					c30.01-21.97,59.82-44.22,89.49-66.64c29.56-22.34,58.96-44.88,88.2-67.62c29.36-22.84,58.56-45.88,87.6-69.12
					c3.59-2.87,7.15-5.76,10.69-8.69c0.21-0.18,0.09-1.03-0.13-0.86c-29.34,22.84-58.2,46.29-87.5,69.17
					c-29.32,22.89-58.8,45.57-88.44,68.05c-29.64,22.48-59.43,44.75-89.38,66.82c-29.85,21.99-59.78,43.88-89.91,65.48
					c-30.24,21.67-60.66,43.1-91.19,64.36c-3.76,2.62-7.52,5.23-11.28,7.84C574.09,749.29,574.17,749.83,574.33,749.72
					L574.33,749.72z"/>
			</g>
			<g>
				<linearGradient id="SVGID_25_" gradientUnits="userSpaceOnUse" x1="857.7775" y1="649.7978" x2="857.7775" y2="461.8981">
					<stop  offset="0" style="stop-color:#FFFFFF"/>
					<stop  offset="0.3581" style="stop-color:#939598"/>
					<stop  offset="0.5361" style="stop-color:#A2A4A6"/>
					<stop  offset="0.662" style="stop-color:#A7A9AC"/>
					<stop  offset="1" style="stop-color:#FFFFFF"/>
				</linearGradient>
				<path class="st23" d="M735.68,649.78c15.66-12.4,31.38-24.71,47.11-37.02c15.81-12.36,31.65-24.67,47.54-36.93
					c15.82-12.21,31.69-24.36,47.59-36.46c15.97-12.15,31.98-24.25,48.03-36.29c15.98-12,32.01-23.94,48.07-35.83
					c1.98-1.47,3.96-2.95,5.92-4.45c0.23-0.18,0.11-1.07-0.14-0.89c-16.24,11.62-32.13,23.78-48.11,35.77
					c-16.06,12.05-32.08,24.15-48.05,36.3c-15.91,12.1-31.78,24.26-47.62,36.47c-15.9,12.26-31.75,24.57-47.57,36.93
					c-15.76,12.32-31.45,24.73-47.11,37.17c-1.93,1.53-3.85,3.06-5.78,4.59C735.4,649.29,735.51,649.91,735.68,649.78L735.68,649.78
					z"/>
			</g>
		</g>
		<g class="st0">
			<linearGradient id="SVGID_26_" gradientUnits="userSpaceOnUse" x1="837.8369" y1="-23.4786" x2="837.8916" y2="-23.5332">
				<stop  offset="0" style="stop-color:#FFFFFF"/>
				<stop  offset="0.3581" style="stop-color:#939598"/>
				<stop  offset="0.5361" style="stop-color:#A2A4A6"/>
				<stop  offset="0.662" style="stop-color:#A7A9AC"/>
				<stop  offset="1" style="stop-color:#FFFFFF"/>
			</linearGradient>
			<path class="st24" d="M837.87-23.46c0.03,0,0.03-0.1,0-0.1C837.83-23.56,837.83-23.46,837.87-23.46L837.87-23.46z"/>
		</g>
		<g class="st0">
			<g>
				<linearGradient id="SVGID_27_" gradientUnits="userSpaceOnUse" x1="352.7495" y1="661.4288" x2="954.5822" y2="59.5961">
					<stop  offset="0" style="stop-color:#FFFFFF"/>
					<stop  offset="0.3581" style="stop-color:#939598"/>
					<stop  offset="0.5361" style="stop-color:#A2A4A6"/>
					<stop  offset="0.662" style="stop-color:#A7A9AC"/>
					<stop  offset="1" style="stop-color:#FFFFFF"/>
				</linearGradient>
				<path class="st25" d="M437.49,746.01c41.52-41.69,79.8-86.47,116.18-132.68c36.63-46.52,71.63-94.39,105.61-142.87
					c33.71-48.11,64.88-97.71,90.69-150.55c25.33-51.86,46.22-105.76,64.69-160.4c18.26-54.03,34.16-108.81,49.77-163.64
					c1.93-6.79,3.81-13.59,5.65-20.41c0.04-0.15-0.13-0.72-0.23-0.4c-16.43,54.99-31.54,110.33-49.4,164.89
					c-17.81,54.41-37.76,108.2-61.87,160.16c-25,53.87-55.14,104.72-88.74,153.64c-33.2,48.35-67.88,95.82-103.72,142.24
					c-35.85,46.43-73.5,91.43-113.88,133.99c-4.93,5.2-9.91,10.35-14.93,15.46C437.16,745.58,437.27,746.22,437.49,746.01
					L437.49,746.01z"/>
			</g>
			<g>
				<linearGradient id="SVGID_28_" gradientUnits="userSpaceOnUse" x1="396.8506" y1="636.7614" x2="966.136" y2="67.4759">
					<stop  offset="0" style="stop-color:#FFFFFF"/>
					<stop  offset="0.3581" style="stop-color:#939598"/>
					<stop  offset="0.5361" style="stop-color:#A2A4A6"/>
					<stop  offset="0.662" style="stop-color:#A7A9AC"/>
					<stop  offset="1" style="stop-color:#FFFFFF"/>
				</linearGradient>
				<path class="st26" d="M475.58,715.39c21.99-18.37,40.73-40.69,59.57-62.18c18.19-20.76,35.97-41.89,53.29-63.38
					c34.69-43.04,67.55-87.57,98.14-133.62c30.17-45.43,58.13-92.35,83.32-140.73c25.33-48.65,47.86-98.79,66.95-150.23
					c18.88-50.87,34.37-103,45.91-156.03c1.48-6.78,2.88-13.57,4.2-20.39c0.06-0.33-0.27-1.2-0.4-0.53
					c-10.98,54.15-25.61,107.42-44.09,159.51c-18.13,51.12-39.69,100.99-64.07,149.43c-24.66,49-52.19,96.54-82.02,142.56
					c-29.85,46.05-62,90.59-95.99,133.67c-16.86,21.37-34.17,42.37-51.89,63.03c-18.42,21.47-36.91,43.14-56.97,63.12
					c-5.22,5.2-10.59,10.24-16.1,15.13C475.28,714.9,475.41,715.53,475.58,715.39L475.58,715.39z"/>
			</g>
			<g>
				<linearGradient id="SVGID_29_" gradientUnits="userSpaceOnUse" x1="435.1035" y1="621.158" x2="991.2754" y2="64.9861">
					<stop  offset="0" style="stop-color:#FFFFFF"/>
					<stop  offset="0.3581" style="stop-color:#939598"/>
					<stop  offset="0.5361" style="stop-color:#A2A4A6"/>
					<stop  offset="0.662" style="stop-color:#A7A9AC"/>
					<stop  offset="1" style="stop-color:#FFFFFF"/>
				</linearGradient>
				<path class="st27" d="M506.62,692.52c38.6-37.26,74.86-77.24,109.56-118.13c34.94-41.18,68.05-83.93,98.87-128.27
					c30.4-43.73,58.61-89,84.14-135.75c25.67-47.02,48.6-95.54,68.25-145.38c19.45-49.34,35.65-99.97,48.12-151.52
					c1.54-6.38,3-12.78,4.41-19.19c0.08-0.35-0.27-1.27-0.43-0.56c-11.87,52.25-27.2,103.61-46.1,153.76
					c-18.76,49.77-40.82,98.28-65.64,145.31c-24.99,47.38-52.79,93.26-82.86,137.58c-30.1,44.36-62.48,87.17-96.72,128.42
					c-34.24,41.25-70.36,80.89-107.93,119.12c-4.62,4.7-9.24,9.38-13.84,14.1C506.31,692.13,506.41,692.72,506.62,692.52
					L506.62,692.52z"/>
			</g>
			<g>
				<linearGradient id="SVGID_30_" gradientUnits="userSpaceOnUse" x1="470.5014" y1="605.596" x2="1017.6602" y2="58.4373">
					<stop  offset="0" style="stop-color:#FFFFFF"/>
					<stop  offset="0.3581" style="stop-color:#939598"/>
					<stop  offset="0.5361" style="stop-color:#A2A4A6"/>
					<stop  offset="0.662" style="stop-color:#A7A9AC"/>
					<stop  offset="1" style="stop-color:#FFFFFF"/>
				</linearGradient>
				<path class="st28" d="M536.67,671.61c37.8-37.92,74.19-77.41,109.61-117.54c35.57-40.3,69.86-81.76,102.01-124.86
					c31.47-42.19,60.88-85.95,87.28-131.51c25.84-44.59,48.83-90.87,68.01-138.72c19.05-47.53,34.29-96.63,44.67-146.78
					c1.3-6.28,2.51-12.57,3.64-18.89c0.07-0.39-0.34-1.43-0.49-0.63c-9.45,50.9-23.59,100.77-41.94,149.18
					c-18.26,48.17-40.46,94.81-65.61,139.75c-25.61,45.75-54.31,89.71-85.16,132.09c-31.52,43.3-65.27,84.93-100.39,125.36
					c-34.9,40.18-71.23,79.04-108.01,117.51c-4.61,4.82-9.22,9.65-13.8,14.5C536.36,671.2,536.46,671.82,536.67,671.61
					L536.67,671.61z"/>
			</g>
			<g>
				<linearGradient id="SVGID_31_" gradientUnits="userSpaceOnUse" x1="503.0102" y1="595.4843" x2="1037.2454" y2="61.2491">
					<stop  offset="0" style="stop-color:#FFFFFF"/>
					<stop  offset="0.3581" style="stop-color:#939598"/>
					<stop  offset="0.5361" style="stop-color:#A2A4A6"/>
					<stop  offset="0.662" style="stop-color:#A7A9AC"/>
					<stop  offset="1" style="stop-color:#FFFFFF"/>
				</linearGradient>
				<path class="st29" d="M561.97,654.28c38.13-36.82,74.86-75.1,110.58-114.25c35.74-39.17,70.61-79.25,103.76-120.64
					c30.95-38.63,59.01-79.24,83.27-122.41c24.53-43.65,45.56-89.18,64.14-135.65c18.51-46.31,34.61-93.54,49.56-141.11
					c1.77-5.63,3.51-11.27,5.22-16.92c0.11-0.35-0.3-1.61-0.53-0.9c-14.84,47.2-30.21,94.22-47.96,140.42
					c-17.64,45.9-37.44,91.02-60.52,134.46c-24.24,45.62-52.43,88.8-84.24,129.49c-32.15,41.13-66.43,80.69-101.36,119.48
					c-34.95,38.8-71.01,76.59-108.04,113.42c-4.7,4.67-9.37,9.37-14.07,14.03C561.63,653.85,561.75,654.49,561.97,654.28
					L561.97,654.28z"/>
			</g>
			<g>
				<linearGradient id="SVGID_32_" gradientUnits="userSpaceOnUse" x1="536.577" y1="579.9454" x2="1053.1171" y2="63.4052">
					<stop  offset="0" style="stop-color:#FFFFFF"/>
					<stop  offset="0.3581" style="stop-color:#939598"/>
					<stop  offset="0.5361" style="stop-color:#A2A4A6"/>
					<stop  offset="0.662" style="stop-color:#A7A9AC"/>
					<stop  offset="1" style="stop-color:#FFFFFF"/>
				</linearGradient>
				<path class="st30" d="M589.16,632.45c37.78-32.11,74.12-65.83,108.67-101.4c34.58-35.6,67.36-72.96,97.9-112.08
					c30.6-39.2,58.96-80.17,84.49-122.86c25.06-41.89,47.39-85.43,66.38-130.41c19.12-45.3,34.79-92.07,46.47-139.83
					c1.44-5.88,2.81-11.77,4.1-17.68c0.1-0.44-0.34-1.58-0.54-0.7c-10.92,47.9-25.47,94.84-43.71,140.47
					c-18.34,45.89-40.19,90.35-64.91,133.13c-24.54,42.47-51.91,83.3-81.52,122.41c-29.76,39.31-61.8,76.89-95.63,112.75
					c-34.07,36.11-70.06,70.28-107.35,103.05c-4.8,4.22-9.59,8.43-14.45,12.58C588.91,632.01,589.01,632.57,589.16,632.45
					L589.16,632.45z"/>
			</g>
			<g>
				<linearGradient id="SVGID_33_" gradientUnits="userSpaceOnUse" x1="576.1857" y1="562.4755" x2="1078.941" y2="59.7201">
					<stop  offset="0" style="stop-color:#FFFFFF"/>
					<stop  offset="0.3581" style="stop-color:#939598"/>
					<stop  offset="0.5361" style="stop-color:#A2A4A6"/>
					<stop  offset="0.662" style="stop-color:#A7A9AC"/>
					<stop  offset="1" style="stop-color:#FFFFFF"/>
				</linearGradient>
				<path class="st31" d="M625.75,611.96c36.73-32.09,72.65-65.13,107.15-99.61c34.57-34.55,67.68-70.58,98.59-108.45
					c30.61-37.51,59.06-76.81,84.44-118.05c24.76-40.22,46.66-82.26,64.78-125.9c18.07-43.52,32.37-88.66,41.91-134.83
					c1.21-5.86,2.34-11.73,3.4-17.62c0.08-0.45-0.39-1.6-0.55-0.7c-8.42,46.65-21.7,92.33-38.94,136.48
					c-17.29,44.28-38.5,86.98-62.72,127.87c-24.35,41.1-51.77,80.34-81.4,117.81c-30.23,38.21-62.75,74.58-96.76,109.46
					c-33.94,34.82-69.4,68.12-105.75,100.4c-4.73,4.2-9.48,8.39-14.24,12.55C625.5,611.51,625.6,612.09,625.75,611.96L625.75,611.96
					z"/>
			</g>
			<g>
				<linearGradient id="SVGID_34_" gradientUnits="userSpaceOnUse" x1="655.2189" y1="503.6109" x2="1099.8594" y2="58.9705">
					<stop  offset="0" style="stop-color:#FFFFFF"/>
					<stop  offset="0.3581" style="stop-color:#939598"/>
					<stop  offset="0.5361" style="stop-color:#A2A4A6"/>
					<stop  offset="0.662" style="stop-color:#A7A9AC"/>
					<stop  offset="1" style="stop-color:#FFFFFF"/>
				</linearGradient>
				<path class="st32" d="M703.43,551.72c34.25-30.05,67.99-60.87,100.33-92.98c31.41-31.19,61.18-64.01,87.96-99.28
					c25-32.93,47.55-67.73,67.44-103.98c20.03-36.49,37.37-74.45,51.83-113.47c14.32-38.64,25.83-78.33,34.29-118.66
					c1.08-5.15,2.08-10.3,2.98-15.48c0.05-0.3-0.25-1.12-0.38-0.49c-8.51,40.76-18.71,80.89-32.52,120.21
					c-13.69,38.99-30.25,76.98-49.47,113.56c-19.35,36.82-41.41,72.22-65.97,105.79c-25.68,35.09-54.23,67.89-84.65,98.93
					c-31.93,32.58-65.66,63.33-99.55,93.85c-4.17,3.76-8.31,7.54-12.44,11.34C703.12,551.21,703.26,551.87,703.43,551.72
					L703.43,551.72z"/>
			</g>
			<g>
				<linearGradient id="SVGID_35_" gradientUnits="userSpaceOnUse" x1="740.7325" y1="436.3597" x2="1122.7919" y2="54.3003">
					<stop  offset="0" style="stop-color:#FFFFFF"/>
					<stop  offset="0.3581" style="stop-color:#939598"/>
					<stop  offset="0.5361" style="stop-color:#A2A4A6"/>
					<stop  offset="0.662" style="stop-color:#A7A9AC"/>
					<stop  offset="1" style="stop-color:#FFFFFF"/>
				</linearGradient>
				<path class="st33" d="M787.21,482.74c29.57-22.51,57.39-47.3,83.18-74.06c25.77-26.75,49.54-55.44,71.08-85.7
					c21.57-30.3,40.91-62.18,57.84-95.3c16.92-33.08,31.38-67.43,43.21-102.65c11.85-35.27,21.07-71.43,27.42-108.1
					c0.74-4.26,1.44-8.54,2.1-12.81c0.1-0.62-0.45-1.3-0.6-0.36c-5.75,36.86-14.36,73.26-25.66,108.81
					c-11.19,35.18-25.02,69.51-41.22,102.69c-16.31,33.39-35.06,65.58-56.07,96.23c-20.88,30.46-43.96,59.41-69.06,86.5
					c-25.26,27.25-52.54,52.64-81.63,75.77c-3.54,2.82-7.11,5.6-10.7,8.35C786.92,482.23,787.03,482.88,787.21,482.74L787.21,482.74
					z"/>
			</g>
			<g>
				<linearGradient id="SVGID_36_" gradientUnits="userSpaceOnUse" x1="899.7068" y1="329.638" x2="1106.9399" y2="122.4049">
					<stop  offset="0" style="stop-color:#FFFFFF"/>
					<stop  offset="0.3581" style="stop-color:#939598"/>
					<stop  offset="0.5361" style="stop-color:#A2A4A6"/>
					<stop  offset="0.662" style="stop-color:#A7A9AC"/>
					<stop  offset="1" style="stop-color:#FFFFFF"/>
				</linearGradient>
				<path class="st34" d="M930.36,360.18c13.26-15.09,25.85-30.76,37.73-46.95c11.88-16.19,23.08-32.9,33.53-50.05
					c10.27-16.85,19.85-34.13,28.67-51.78c8.98-17.97,17.19-36.33,24.6-55.01c7.37-18.58,13.92-37.5,19.65-56.65
					c0.7-2.34,1.39-4.69,2.07-7.04c0.11-0.38-0.26-1.31-0.47-0.58c-5.56,19.28-11.96,38.31-19.16,57.03
					c-7.17,18.63-15.11,36.96-23.82,54.92c-8.68,17.89-18.11,35.43-28.26,52.53c-10.26,17.28-21.25,34.12-32.96,50.46
					c-11.63,16.23-23.95,31.97-36.91,47.16c-1.59,1.86-3.19,3.72-4.8,5.56C930.14,359.89,930.22,360.34,930.36,360.18L930.36,360.18
					z"/>
			</g>
		</g>
		<g class="st0">
			<g>
				<linearGradient id="SVGID_37_" gradientUnits="userSpaceOnUse" x1="497.9924" y1="799.075" x2="497.9924" y2="-20.8069">
					<stop  offset="0" style="stop-color:#FFFFFF"/>
					<stop  offset="0.3581" style="stop-color:#939598"/>
					<stop  offset="0.5361" style="stop-color:#A2A4A6"/>
					<stop  offset="0.662" style="stop-color:#A7A9AC"/>
					<stop  offset="1" style="stop-color:#FFFFFF"/>
				</linearGradient>
				<path class="st35" d="M633.52-20.77c-32.53,39.76-56.66,85.86-76.6,132.99c-20.98,49.59-37.58,100.9-54.8,151.86
					c-19.14,56.63-38.99,113.09-56.73,170.18c-17.38,55.93-31.72,112.76-44.41,169.92c-12.7,57.21-23.73,114.76-34.59,172.34
					c-1.38,7.29-2.75,14.58-4.12,21.88c-0.06,0.32,0.29,1.04,0.4,0.46c10.78-57.31,21.59-114.62,33.81-171.64
					c12.21-56.98,25.87-113.67,42.38-169.57c16.92-57.3,36.92-113.68,56.04-170.28c17.41-51.54,34.02-103.47,54.04-154.08
					C568.14,84.72,591.05,37.21,622.09-5c3.76-5.12,7.64-10.16,11.58-15.14C633.79-20.28,633.69-20.98,633.52-20.77L633.52-20.77z"
					/>
			</g>
			<g>
				<linearGradient id="SVGID_38_" gradientUnits="userSpaceOnUse" x1="510.2421" y1="799.7457" x2="510.2421" y2="-20.245">
					<stop  offset="0" style="stop-color:#FFFFFF"/>
					<stop  offset="0.3581" style="stop-color:#939598"/>
					<stop  offset="0.5361" style="stop-color:#A2A4A6"/>
					<stop  offset="0.662" style="stop-color:#A7A9AC"/>
					<stop  offset="1" style="stop-color:#FFFFFF"/>
				</linearGradient>
				<path class="st36" d="M650.67-20.2c-35.07,40.79-60.79,88.42-82.71,137.29c-23.27,51.87-43.81,105.08-63.16,158.53
					c-19.49,53.85-37.39,108.28-53.63,163.19c-16.45,55.61-31.2,111.73-44.23,168.24c-13.03,56.55-24.42,113.51-33.89,170.77
					c-1.18,7.13-2.33,14.26-3.44,21.39c-0.07,0.43,0.34,0.85,0.44,0.23c9.29-57.2,19.99-114.15,32.57-170.73
					c12.48-56.11,26.65-111.84,42.49-167.1c15.9-55.46,33.48-110.44,52.74-164.83c18.98-53.57,39.37-106.72,61.74-158.96
					c21.26-49.67,45.35-98.74,78.5-141.69c4.11-5.33,8.37-10.55,12.75-15.66C650.96-19.68,650.86-20.43,650.67-20.2L650.67-20.2z"/>
			</g>
			<g>
				<linearGradient id="SVGID_39_" gradientUnits="userSpaceOnUse" x1="522.8569" y1="782.1711" x2="522.8569" y2="-21.9799">
					<stop  offset="0" style="stop-color:#FFFFFF"/>
					<stop  offset="0.3581" style="stop-color:#939598"/>
					<stop  offset="0.5361" style="stop-color:#A2A4A6"/>
					<stop  offset="0.662" style="stop-color:#A7A9AC"/>
					<stop  offset="1" style="stop-color:#FFFFFF"/>
				</linearGradient>
				<path class="st37" d="M666.13-21.94c-31.05,44.72-57.88,92.25-81.6,141.22c-23.61,48.75-44.19,98.91-63.36,149.55
					c-20.29,53.58-38.97,107.76-56.04,162.45c-16.85,54-32.13,108.48-45.79,163.37c-13.78,55.35-26.02,111.1-36.37,167.2
					c-1.22,6.59-2.41,13.18-3.58,19.77c-0.05,0.3,0.31,0.85,0.41,0.33c10.14-55.59,21.7-110.91,34.93-165.84
					c13.3-55.2,28.22-110.01,44.73-164.34c16.58-54.53,34.77-108.57,54.55-162.02c18.89-51.05,39.06-101.67,62.02-151.03
					C599,89.35,624.73,41.17,654.78-4.29c3.77-5.71,7.61-11.37,11.52-16.99C666.4-21.44,666.29-22.16,666.13-21.94L666.13-21.94z"/>
			</g>
			<g>
				<linearGradient id="SVGID_40_" gradientUnits="userSpaceOnUse" x1="537.4749" y1="763.3798" x2="537.4749" y2="-23.9778">
					<stop  offset="0" style="stop-color:#FFFFFF"/>
					<stop  offset="0.3581" style="stop-color:#939598"/>
					<stop  offset="0.5361" style="stop-color:#A2A4A6"/>
					<stop  offset="0.662" style="stop-color:#A7A9AC"/>
					<stop  offset="1" style="stop-color:#FFFFFF"/>
				</linearGradient>
				<path class="st38" d="M684.2-23.94c-28.52,47.07-55.34,95.19-80.36,144.2c-25.06,49.07-48.24,99.11-69.58,149.91
					c-21.43,51-40.98,102.79-58.62,155.22c-17.42,51.81-32.97,104.24-46.6,157.17c-13.73,53.35-25.53,107.2-35.24,161.43
					c-1.13,6.31-2.18,12.64-3.23,18.97c-0.05,0.33,0.25,0.64,0.33,0.18c9.61-54.18,20.72-108.06,33.97-161.47
					c13.26-53.41,28.48-106.34,45.61-158.64c17.07-52.12,36.04-103.62,56.85-154.36c20.89-50.94,43.67-101.09,68.17-150.39
					c24.33-48.95,50.45-96.99,78.31-144.02c3.48-5.88,6.99-11.73,10.53-17.58C684.44-23.48,684.32-24.15,684.2-23.94L684.2-23.94z"
					/>
			</g>
			<g>
				<linearGradient id="SVGID_41_" gradientUnits="userSpaceOnUse" x1="549.1769" y1="746.2482" x2="549.1769" y2="-15.1658">
					<stop  offset="0" style="stop-color:#FFFFFF"/>
					<stop  offset="0.3581" style="stop-color:#939598"/>
					<stop  offset="0.5361" style="stop-color:#A2A4A6"/>
					<stop  offset="0.662" style="stop-color:#A7A9AC"/>
					<stop  offset="1" style="stop-color:#FFFFFF"/>
				</linearGradient>
				<path class="st39" d="M698.49-15.14c-28.19,45.75-54.68,92.57-79.62,140.17c-24.64,47.03-47.56,94.97-68.86,143.6
					c-21.48,49.03-41.27,98.81-59.32,149.21c-17.98,50.2-34.27,101.01-48.76,152.33c-14.55,51.51-27.32,103.53-38.24,155.93
					c-1.35,6.47-2.66,12.94-3.96,19.42c-0.07,0.33,0.28,1.13,0.4,0.49c10.45-52.27,22.67-104.19,36.68-155.62
					c14.13-51.85,30.06-103.21,47.74-153.95c17.54-50.34,36.83-100.07,57.8-149.08c21.05-49.2,43.79-97.67,68.19-145.3
					c24.31-47.47,50.27-94.03,77.76-139.73c3.41-5.67,6.84-11.32,10.3-16.96C698.68-14.75,698.59-15.3,698.49-15.14L698.49-15.14z"
					/>
			</g>
			<g>
				<linearGradient id="SVGID_42_" gradientUnits="userSpaceOnUse" x1="557.7025" y1="739.6731" x2="557.7025" y2="-0.4376">
					<stop  offset="0" style="stop-color:#FFFFFF"/>
					<stop  offset="0.3581" style="stop-color:#939598"/>
					<stop  offset="0.5361" style="stop-color:#A2A4A6"/>
					<stop  offset="0.662" style="stop-color:#A7A9AC"/>
					<stop  offset="1" style="stop-color:#FFFFFF"/>
				</linearGradient>
				<path class="st40" d="M710.17-0.4c-27.02,44.87-52.57,90.64-76.84,137.05c-23.99,45.88-46.64,92.46-67.94,139.64
					c-21.48,47.57-41.59,95.75-60.29,144.48c-18.78,48.95-36.14,98.43-52.06,148.38c-15.86,49.78-30.28,100.02-43.23,150.64
					c-1.61,6.3-3.2,12.6-4.76,18.91c-0.11,0.43,0.33,1.48,0.53,0.65c12.72-51.03,26.82-101.71,42.45-151.93
					c15.44-49.62,32.31-98.8,50.57-147.46c18.35-48.87,38.09-97.22,59.21-144.95c21.02-47.5,43.41-94.4,67.1-140.63
					c23.82-46.48,48.99-92.26,75.47-137.27c3.3-5.61,6.61-11.22,9.94-16.82C710.43,0.13,710.31-0.62,710.17-0.4L710.17-0.4z"/>
			</g>
			<g>
				<linearGradient id="SVGID_43_" gradientUnits="userSpaceOnUse" x1="570.0415" y1="732.1434" x2="570.0415" y2="-23.0816">
					<stop  offset="0" style="stop-color:#FFFFFF"/>
					<stop  offset="0.3581" style="stop-color:#939598"/>
					<stop  offset="0.5361" style="stop-color:#A2A4A6"/>
					<stop  offset="0.662" style="stop-color:#A7A9AC"/>
					<stop  offset="1" style="stop-color:#FFFFFF"/>
				</linearGradient>
				<path class="st41" d="M728.21-23.04c-27.53,47.23-50.83,96.85-74.51,146.08c-22.86,47.53-45.68,95.08-67.91,142.91
					c-22.52,48.44-44.42,97.17-65.14,146.42c-20.58,48.91-39.98,98.33-57.57,148.39c-17.51,49.83-33.24,100.3-46.51,151.42
					c-1.66,6.4-3.28,12.8-4.87,19.22c-0.08,0.34,0.26,1.16,0.42,0.51c12.79-51.66,28.08-102.68,45.29-153.04
					c17.16-50.19,36.2-99.73,56.48-148.74c20.25-48.9,41.74-97.28,63.88-145.35c22.24-48.28,45.15-96.26,68.17-144.17
					c23.41-48.73,46.44-97.71,72.46-145.11c3.28-5.97,6.61-11.92,9.95-17.86C728.46-22.53,728.34-23.26,728.21-23.04L728.21-23.04z"
					/>
			</g>
			<g>
				<linearGradient id="SVGID_44_" gradientUnits="userSpaceOnUse" x1="577.4761" y1="721.9111" x2="577.4761" y2="-16.5737">
					<stop  offset="0" style="stop-color:#FFFFFF"/>
					<stop  offset="0.3581" style="stop-color:#939598"/>
					<stop  offset="0.5361" style="stop-color:#A2A4A6"/>
					<stop  offset="0.662" style="stop-color:#A7A9AC"/>
					<stop  offset="1" style="stop-color:#FFFFFF"/>
				</linearGradient>
				<path class="st42" d="M737.47-16.53c-23.25,48.48-46.14,97.13-69.25,145.68c-22.81,47.92-45.62,95.83-68.26,143.83
					c-22.11,46.86-43.95,93.85-65.01,141.2c-21.04,47.3-41.28,94.95-60.18,143.15c-18.72,47.76-36.11,96.05-51.62,144.95
					c-1.98,6.25-3.93,12.51-5.85,18.78c-0.12,0.39,0.26,1.32,0.48,0.59c15.26-49.87,32.54-99.11,51.27-147.79
					c18.5-48.09,38.4-95.62,59.15-142.78c20.86-47.43,42.58-94.48,64.61-141.38c22.24-47.35,44.75-94.57,67.18-141.82
					c22.97-48.39,45.91-96.79,68.88-145.17c2.93-6.17,5.85-12.34,8.76-18.52C737.73-16,737.58-16.76,737.47-16.53L737.47-16.53z"/>
			</g>
			<g>
				<linearGradient id="SVGID_45_" gradientUnits="userSpaceOnUse" x1="582.4542" y1="719.6066" x2="582.4542" y2="-12.6485">
					<stop  offset="0" style="stop-color:#FFFFFF"/>
					<stop  offset="0.3581" style="stop-color:#939598"/>
					<stop  offset="0.5361" style="stop-color:#A2A4A6"/>
					<stop  offset="0.662" style="stop-color:#A7A9AC"/>
					<stop  offset="1" style="stop-color:#FFFFFF"/>
				</linearGradient>
				<path class="st43" d="M742.39-12.54c-15.19,49.07-34.17,96.83-55.34,143.61c-20.78,45.94-43.53,90.95-66.53,135.8
					c-23.16,45.16-46.6,90.2-68.61,135.94c-23.06,47.92-44.22,96.73-64.2,146.01c-20.28,50.02-39.41,100.49-58.41,151
					c-2.33,6.2-4.66,12.41-7,18.61c-0.14,0.37,0.21,1.66,0.47,0.97c19.06-50.74,38.13-101.48,58.23-151.82
					c20.03-50.15,41.1-99.91,64.16-148.75c21.73-46.03,45.09-91.27,68.33-136.55c23.24-45.29,46.4-90.65,67.72-136.89
					c20.98-45.49,40.26-91.86,55.79-139.51c1.93-5.92,3.8-11.86,5.61-17.82C742.68-12.12,742.52-12.94,742.39-12.54L742.39-12.54z"
					/>
			</g>
			<g>
				<linearGradient id="SVGID_46_" gradientUnits="userSpaceOnUse" x1="592.1576" y1="695.386" x2="592.1576" y2="-11.7281">
					<stop  offset="0" style="stop-color:#FFFFFF"/>
					<stop  offset="0.3581" style="stop-color:#939598"/>
					<stop  offset="0.5361" style="stop-color:#A2A4A6"/>
					<stop  offset="0.662" style="stop-color:#A7A9AC"/>
					<stop  offset="1" style="stop-color:#FFFFFF"/>
				</linearGradient>
				<path class="st44" d="M747.39-11.52c-10.05,47.77-26.64,93.78-46.4,138.34c-19.74,44.53-42.53,87.62-65.2,130.7
					c-23.7,45.03-46.86,90.33-68.96,136.17c-22.39,46.43-43.78,93.35-64.49,140.55c-20.71,47.21-40.27,94.95-58.93,143
					c-2.3,5.92-4.57,11.85-6.8,17.8c-0.04,0.12,0.07,0.49,0.16,0.28c18.99-48.1,38.32-96,58.69-143.54
					c20.39-47.58,41.81-94.68,64.15-141.38c22.09-46.17,45.1-91.89,68.88-137.21c22.73-43.31,45.88-86.43,66.34-130.88
					c20.16-43.79,37.65-88.99,48.99-135.91c1.4-5.8,2.68-11.62,3.89-17.46C747.76-11.33,747.51-12.1,747.39-11.52L747.39-11.52z"/>
			</g>
			<g>
				<linearGradient id="SVGID_47_" gradientUnits="userSpaceOnUse" x1="596.7235" y1="688.2042" x2="596.7235" y2="-3.5517">
					<stop  offset="0" style="stop-color:#FFFFFF"/>
					<stop  offset="0.3581" style="stop-color:#939598"/>
					<stop  offset="0.5361" style="stop-color:#A2A4A6"/>
					<stop  offset="0.662" style="stop-color:#A7A9AC"/>
					<stop  offset="1" style="stop-color:#FFFFFF"/>
				</linearGradient>
				<path class="st45" d="M749.86-3.3c-6.96,46.92-21.22,92.29-39.4,136.01c-18.2,43.79-40.06,85.94-62.3,127.78
					c-23.32,43.88-46.62,87.76-68.98,132.15c-22.87,45.41-45.02,91.18-66.43,137.29c-21.5,46.31-42.42,92.92-62.28,139.96
					c-2.43,5.75-4.84,11.5-7.22,17.26c-0.15,0.35,0.19,1.49,0.46,0.86c20.13-46.9,40.47-93.69,61.78-140.07
					c21.32-46.39,43.38-92.45,66.17-138.13c22.45-45.01,45.75-89.57,69.42-133.95c22.42-42.04,44.76-84.21,63.77-127.93
					c18.58-42.74,33.98-87.08,42.48-132.99c1.09-5.88,2.04-11.78,2.89-17.7C750.28-3.07,749.96-3.99,749.86-3.3L749.86-3.3z"/>
			</g>
			<g>
				<linearGradient id="SVGID_48_" gradientUnits="userSpaceOnUse" x1="601.7671" y1="678.2916" x2="601.7671" y2="10.2142">
					<stop  offset="0" style="stop-color:#FFFFFF"/>
					<stop  offset="0.3581" style="stop-color:#939598"/>
					<stop  offset="0.5361" style="stop-color:#A2A4A6"/>
					<stop  offset="0.662" style="stop-color:#A7A9AC"/>
					<stop  offset="1" style="stop-color:#FFFFFF"/>
				</linearGradient>
				<path class="st46" d="M753.39,10.45c-6.2,45.07-19.79,88.59-37.29,130.48c-17.99,43.05-39.76,84.38-61.68,125.53
					c-22.96,43.11-45.68,86.33-67.92,129.81c-22.28,43.55-44.15,87.32-65.6,131.28c-21.55,44.16-42.68,88.53-63.39,133.09
					c-2.57,5.52-5.13,11.05-7.68,16.57c-0.17,0.36,0.18,1.52,0.47,0.88c20.98-45.38,42.39-90.57,64.22-135.55
					c21.74-44.79,43.91-89.37,66.51-133.73c22.49-44.15,45.42-88.07,68.71-131.8c21.18-39.76,42.48-79.53,60.61-120.79
					c18.29-41.62,33.38-84.92,41.07-129.83c0.89-5.17,1.66-10.36,2.34-15.57C753.79,10.55,753.47,9.85,753.39,10.45L753.39,10.45z"
					/>
			</g>
			<g>
				<linearGradient id="SVGID_49_" gradientUnits="userSpaceOnUse" x1="608.1031" y1="663.7609" x2="608.1031" y2="32.142">
					<stop  offset="0" style="stop-color:#FFFFFF"/>
					<stop  offset="0.3581" style="stop-color:#939598"/>
					<stop  offset="0.5361" style="stop-color:#A2A4A6"/>
					<stop  offset="0.662" style="stop-color:#A7A9AC"/>
					<stop  offset="1" style="stop-color:#FFFFFF"/>
				</linearGradient>
				<path class="st47" d="M754.34,32.35c-3.82,43.11-18.16,84.13-35.57,123.47c-18.14,40.97-38.67,80.95-58.93,120.9
					c-20.84,41.08-41.88,82.05-62.89,123.03c-21.16,41.28-42.42,82.52-63.62,123.78c-21.21,41.27-42.39,82.55-63.6,123.81
					c-2.69,5.23-5.37,10.46-8.06,15.69c-0.13,0.26,0.12,1.04,0.34,0.6c21.4-41.63,42.8-83.24,64.19-124.87
					c21.39-41.64,42.71-83.32,64.16-124.93c21.28-41.29,42.69-82.52,63.77-123.91c20.48-40.2,41.04-80.45,59.85-121.46
					c17.52-38.2,33.03-78.06,38.87-119.91c0.74-5.33,1.32-10.67,1.74-16.03C754.6,32.24,754.38,31.92,754.34,32.35L754.34,32.35z"/>
			</g>
			<g>
				<linearGradient id="SVGID_50_" gradientUnits="userSpaceOnUse" x1="618.6158" y1="631.0222" x2="618.6158" y2="109.1394">
					<stop  offset="0" style="stop-color:#FFFFFF"/>
					<stop  offset="0.3581" style="stop-color:#939598"/>
					<stop  offset="0.5361" style="stop-color:#A2A4A6"/>
					<stop  offset="0.662" style="stop-color:#A7A9AC"/>
					<stop  offset="1" style="stop-color:#FFFFFF"/>
				</linearGradient>
				<path class="st48" d="M749.05,109.35c-7.84,34.43-20.86,67.24-36.53,98.81c-16.1,32.45-34.75,63.54-53.09,94.76
					c-19.24,32.76-37.38,66.03-54.76,99.81c-18.34,35.64-36.73,71.26-54.91,106.98c-18.2,35.76-36.67,71.39-55.02,107.08
					c-2.3,4.46-4.59,8.93-6.86,13.41c-0.15,0.29,0.12,1.18,0.38,0.69c18.66-35.93,36.63-72.21,55.45-108.06
					c18.8-35.81,37.05-71.92,55.54-107.89c17.8-34.62,35.97-68.96,55.66-102.56c17.89-30.53,36.26-60.81,52.53-92.25
					c16.1-31.12,30.09-63.48,38.9-97.47c1.11-4.26,2.11-8.55,3.03-12.85C749.43,109.53,749.18,108.78,749.05,109.35L749.05,109.35z"
					/>
			</g>
			<g>
				<linearGradient id="SVGID_51_" gradientUnits="userSpaceOnUse" x1="628.3231" y1="588.8705" x2="628.3231" y2="168.1552">
					<stop  offset="0" style="stop-color:#FFFFFF"/>
					<stop  offset="0.3581" style="stop-color:#939598"/>
					<stop  offset="0.5361" style="stop-color:#A2A4A6"/>
					<stop  offset="0.662" style="stop-color:#A7A9AC"/>
					<stop  offset="1" style="stop-color:#FFFFFF"/>
				</linearGradient>
				<path class="st49" d="M738.26,168.33c-6.9,28.54-18.32,55.51-31.89,81.48c-13.94,26.69-29.88,52.27-45.25,78.15
					c-16.2,27.27-32.04,54.76-47.63,82.38c-15.56,27.55-30.88,55.24-45.9,83.08c-15.03,27.84-29.91,55.79-44.14,84.06
					c-1.78,3.54-3.55,7.08-5.31,10.62c-0.14,0.27,0.12,1.1,0.36,0.63c14.71-28.3,29.32-56.64,44.35-84.77
					c14.98-28.04,30.23-55.93,45.85-83.62c15.78-27.97,31.91-55.73,48.25-83.37c15.16-25.64,30.94-50.95,45.15-77.13
					c13.92-25.63,26.15-52.32,33.84-80.53c0.96-3.51,1.83-7.05,2.61-10.61C738.59,168.47,738.37,167.86,738.26,168.33L738.26,168.33
					z"/>
			</g>
			<g>
				<linearGradient id="SVGID_52_" gradientUnits="userSpaceOnUse" x1="627.5503" y1="541.1031" x2="627.5503" y2="274.0795">
					<stop  offset="0" style="stop-color:#FFFFFF"/>
					<stop  offset="0.3581" style="stop-color:#939598"/>
					<stop  offset="0.5361" style="stop-color:#A2A4A6"/>
					<stop  offset="0.662" style="stop-color:#A7A9AC"/>
					<stop  offset="1" style="stop-color:#FFFFFF"/>
				</linearGradient>
				<path class="st50" d="M704.16,274.24c-1.08,4.98-2.93,9.79-4.82,14.52c-1.77,4.45-3.66,8.85-5.68,13.19
					c-4.05,8.72-8.59,17.21-13.44,25.52c-9.67,16.58-20.54,32.42-31.39,48.24c-11.32,16.5-22.44,33.11-32.99,50.13
					c-10.93,17.62-21.28,35.61-31.48,53.66c-10.2,18.04-20.14,36.23-30.05,54.44c-1.23,2.26-2.42,4.54-3.63,6.82
					c-0.07,0.12,0.05,0.51,0.17,0.29c10.16-18.12,19.98-36.44,30.16-54.55c10.18-18.11,20.68-36.01,31.53-53.72
					c10.66-17.41,21.86-34.45,33.41-51.28c10.9-15.89,21.91-31.72,31.84-48.25c9.8-16.32,19.01-33.52,24.89-51.7
					c0.74-2.28,1.31-4.62,1.74-6.98C704.46,274.35,704.25,273.82,704.16,274.24L704.16,274.24z"/>
			</g>
		</g>
		<g class="st0">
			<linearGradient id="SVGID_53_" gradientUnits="userSpaceOnUse" x1="546.039" y1="547.174" x2="551.1711" y2="542.0418">
				<stop  offset="0" style="stop-color:#FFFFFF"/>
				<stop  offset="0.3581" style="stop-color:#939598"/>
				<stop  offset="0.5361" style="stop-color:#A2A4A6"/>
				<stop  offset="0.662" style="stop-color:#A7A9AC"/>
				<stop  offset="1" style="stop-color:#FFFFFF"/>
			</linearGradient>
			<path class="st51" d="M550.75,541.66c-1.44,1.93-2.89,3.86-4.33,5.79c-0.02,0.03,0,0.15,0.04,0.11c1.45-1.92,2.9-3.84,4.34-5.76
				C550.83,541.75,550.79,541.6,550.75,541.66L550.75,541.66z"/>
		</g>
		<g class="st0">
			<g>
				<linearGradient id="SVGID_54_" gradientUnits="userSpaceOnUse" x1="272.1625" y1="686.1464" x2="864.0855" y2="94.2233">
					<stop  offset="0" style="stop-color:#FFFFFF"/>
					<stop  offset="0.3581" style="stop-color:#939598"/>
					<stop  offset="0.5361" style="stop-color:#A2A4A6"/>
					<stop  offset="0.662" style="stop-color:#A7A9AC"/>
					<stop  offset="1" style="stop-color:#FFFFFF"/>
				</linearGradient>
				<path class="st52" d="M762.35-6.97c5.01,60.54-2.56,121.43-18.09,180c-15.12,57.01-37.91,111.69-64.44,164.28
					c-26.38,52.28-56.15,102.91-87.25,152.51c-30.74,49.02-63.23,96.95-97.38,143.66c-34.14,46.69-70,92.16-107.39,136.29
					c-4.74,5.59-9.5,11.16-14.27,16.72c-0.27,0.32-0.02,1.53,0.37,1.08c38.48-44.51,75.27-90.5,110.33-137.76
					c35.06-47.25,68.48-95.71,100.07-145.36c31.56-49.61,61.81-100.23,88.93-152.42c27.15-52.25,50.95-106.5,67.42-163.11
					c16.51-56.74,25.53-115.94,23.25-175.11c-0.27-6.99-0.71-13.97-1.29-20.94C762.56-7.55,762.33-7.23,762.35-6.97L762.35-6.97z"/>
			</g>
			<g>
				<linearGradient id="SVGID_55_" gradientUnits="userSpaceOnUse" x1="292.7775" y1="676.3734" x2="876.0235" y2="93.1273">
					<stop  offset="0" style="stop-color:#FFFFFF"/>
					<stop  offset="0.3581" style="stop-color:#939598"/>
					<stop  offset="0.5361" style="stop-color:#A2A4A6"/>
					<stop  offset="0.662" style="stop-color:#A7A9AC"/>
					<stop  offset="1" style="stop-color:#FFFFFF"/>
				</linearGradient>
				<path class="st53" d="M775.07-7.32c1.15,58.06-7.28,115.65-22.74,171.56c-15.5,56.03-37.34,110.1-62.34,162.52
					c-24.85,52.11-52.57,102.91-81.89,152.63c-29.36,49.79-60.75,98.39-94.3,145.46c-33.28,46.68-68.7,91.85-106.37,135.08
					c-4.65,5.34-9.34,10.64-14.06,15.92c-0.3,0.33-0.03,1.62,0.39,1.15c38.68-43.28,75.08-88.58,109.25-135.5
					c34.07-46.79,65.94-95.17,95.79-144.75c29.99-49.81,58.23-100.78,83.9-152.95c25.6-52.02,48.36-105.61,65.1-161.17
					c16.48-54.69,26.92-111.52,27.76-168.73c0.1-7.08,0.04-14.15-0.17-21.22C775.37-7.75,775.07-7.74,775.07-7.32L775.07-7.32z"/>
			</g>
			<g>
				<linearGradient id="SVGID_56_" gradientUnits="userSpaceOnUse" x1="441.6993" y1="519.837" x2="877.7034" y2="83.8329">
					<stop  offset="0" style="stop-color:#FFFFFF"/>
					<stop  offset="0.3581" style="stop-color:#939598"/>
					<stop  offset="0.5361" style="stop-color:#A2A4A6"/>
					<stop  offset="0.662" style="stop-color:#A7A9AC"/>
					<stop  offset="1" style="stop-color:#FFFFFF"/>
				</linearGradient>
				<path class="st54" d="M785.06-8.11c4.92,10.6,4.97,22.26,3.88,33.67c-1.05,11-2.63,21.97-4.33,32.89
					c-3.33,21.39-7.57,42.65-12.57,63.71c-10.09,42.57-23.44,84.3-39.12,125.13c-15.7,40.89-33.82,80.81-53.64,119.85
					c-20.22,39.83-42.17,78.76-65.1,117.09c-22.96,38.38-46.89,76.17-71.16,113.73c-2.99,4.63-5.95,9.29-8.88,13.96
					c-0.08,0.12,0.05,0.59,0.18,0.4c25.24-37.53,49.26-75.99,72.74-114.65c23.69-39,46.36-78.65,67.33-119.19
					c20.58-39.81,39.48-80.5,55.93-122.19c16.16-40.94,29.88-82.9,40.42-125.65c5.28-21.43,9.74-43.05,13.26-64.83
					c1.74-10.76,3.27-21.55,4.56-32.37c1.16-9.7,2.21-19.63,0.68-29.35c-0.7-4.44-1.99-8.66-3.99-12.69
					C785.08-8.93,784.98-8.27,785.06-8.11L785.06-8.11z"/>
			</g>
			<g>
				<linearGradient id="SVGID_57_" gradientUnits="userSpaceOnUse" x1="517.5585" y1="432.7991" x2="878.6313" y2="71.7262">
					<stop  offset="0" style="stop-color:#FFFFFF"/>
					<stop  offset="0.3581" style="stop-color:#939598"/>
					<stop  offset="0.5361" style="stop-color:#A2A4A6"/>
					<stop  offset="0.662" style="stop-color:#A7A9AC"/>
					<stop  offset="1" style="stop-color:#FFFFFF"/>
				</linearGradient>
				<path class="st55" d="M793.54-12.57c6.4,6.11,5.08,15.91,4.4,23.89c-0.78,9.17-1.75,18.33-2.9,27.47
					c-2.33,18.55-5.41,37-9.16,55.31c-7.5,36.58-17.65,72.59-29.78,107.89c-12.07,35.14-26.11,69.59-41.5,103.41
					c-15.54,34.15-32.4,67.7-50.08,100.78c-17.78,33.28-36.32,66.13-55.05,98.88c-2.35,4.1-4.69,8.21-7.01,12.33
					c-0.08,0.14,0.05,0.56,0.19,0.33c19.65-33.29,38.62-67.05,56.99-101.06c18.38-34.02,36.04-68.44,52.24-103.55
					c16-34.68,30.61-70.01,43.18-106.08c12.36-35.49,22.75-71.69,30.48-108.48c3.8-18.06,6.95-36.26,9.37-54.56
					c1.25-9.46,2.3-18.94,3.14-28.45c0.62-7,1.88-14.66-0.07-21.56c-0.79-2.81-2.19-5.24-4.34-7.22
					C793.51-13.36,793.4-12.7,793.54-12.57L793.54-12.57z"/>
			</g>
			<g>
				<linearGradient id="SVGID_58_" gradientUnits="userSpaceOnUse" x1="572.9061" y1="371.0605" x2="885.2942" y2="58.6725">
					<stop  offset="0" style="stop-color:#FFFFFF"/>
					<stop  offset="0.3581" style="stop-color:#939598"/>
					<stop  offset="0.5361" style="stop-color:#A2A4A6"/>
					<stop  offset="0.662" style="stop-color:#A7A9AC"/>
					<stop  offset="1" style="stop-color:#FFFFFF"/>
				</linearGradient>
				<path class="st56" d="M806.58-19.58c1.68,33.27-2.18,66.66-8.96,99.2c-6.66,31.97-15.96,63.36-26.13,94.38
					c-10.01,30.57-21.14,60.77-33.19,90.59c-11.97,29.62-24.84,58.88-38.48,87.77c-13.65,28.92-28.08,57.45-43.05,85.71
					c-1.85,3.49-3.7,6.97-5.57,10.44c-0.2,0.37,0.15,1.52,0.5,0.88c15.37-28.33,30.07-57.02,44-86.08
					c14-29.2,27.24-58.77,39.54-88.73c12.24-29.81,23.55-60.01,33.79-90.57c10.35-30.9,19.92-62.18,27.05-94
					C803.2,58.27,807.93,25.6,807.33-7c-0.08-4.2-0.25-8.39-0.47-12.58C806.84-19.98,806.56-19.98,806.58-19.58L806.58-19.58z"/>
			</g>
			<g>
				<linearGradient id="SVGID_59_" gradientUnits="userSpaceOnUse" x1="645.5197" y1="284.7879" x2="887.1747" y2="43.1329">
					<stop  offset="0" style="stop-color:#FFFFFF"/>
					<stop  offset="0.3581" style="stop-color:#939598"/>
					<stop  offset="0.5361" style="stop-color:#A2A4A6"/>
					<stop  offset="0.662" style="stop-color:#A7A9AC"/>
					<stop  offset="1" style="stop-color:#FFFFFF"/>
				</linearGradient>
				<path class="st57" d="M822.14-21.43c1.1,26.62-4.31,53.05-9.7,78.98c-5.05,24.31-10.86,48.47-17.45,72.41
					c-6.73,24.45-14.26,48.67-22.59,72.62c-8.16,23.47-17.09,46.67-26.77,69.56c-9.72,23-20.19,45.68-31.38,67.99
					c-1.38,2.76-2.76,5.53-4.15,8.29c-0.21,0.41,0.17,1.71,0.55,0.99c11.67-22.42,22.38-45.36,32.38-68.57
					c9.97-23.13,19.17-46.58,27.59-70.31c8.33-23.47,15.9-47.21,22.68-71.17c6.89-24.35,12.98-48.93,18.2-73.7
					c2.67-12.69,5.21-25.43,7.32-38.22c2.11-12.79,3.75-25.73,3.84-38.7c0.02-3.4-0.06-6.79-0.24-10.18
					C822.4-21.84,822.12-21.84,822.14-21.43L822.14-21.43z"/>
			</g>
			<g>
				<linearGradient id="SVGID_60_" gradientUnits="userSpaceOnUse" x1="736.9791" y1="158.3179" x2="874.1212" y2="21.1758">
					<stop  offset="0" style="stop-color:#FFFFFF"/>
					<stop  offset="0.3581" style="stop-color:#939598"/>
					<stop  offset="0.5361" style="stop-color:#A2A4A6"/>
					<stop  offset="0.662" style="stop-color:#A7A9AC"/>
					<stop  offset="1" style="stop-color:#FFFFFF"/>
				</linearGradient>
				<path class="st58" d="M830.01-22.41c-0.19,30.07-4.08,60.01-10.26,89.4c-6.15,29.22-14.4,57.96-23.39,86.42
					c-5.08,16.09-10.69,32.02-15.65,48.15c-0.07,0.22,0.19,0.99,0.35,0.54c5.14-14.19,9.68-28.63,14.29-42.99
					c4.61-14.39,9.04-28.84,13.12-43.39c8.09-28.85,14.73-58.18,18.51-87.93c2.12-16.65,3.3-33.41,3.34-50.2
					C830.32-22.86,830.01-22.85,830.01-22.41L830.01-22.41z"/>
			</g>
		</g>
		<g class="st0">
			<linearGradient id="SVGID_61_" gradientUnits="userSpaceOnUse" x1="727.5385" y1="213.4582" x2="727.5942" y2="213.4024">
				<stop  offset="0" style="stop-color:#FFFFFF"/>
				<stop  offset="0.3581" style="stop-color:#939598"/>
				<stop  offset="0.5361" style="stop-color:#A2A4A6"/>
				<stop  offset="0.662" style="stop-color:#A7A9AC"/>
				<stop  offset="1" style="stop-color:#FFFFFF"/>
			</linearGradient>
			<path class="st59" d="M727.57,213.48c0.03,0,0.03-0.1,0-0.1C727.53,213.38,727.53,213.48,727.57,213.48L727.57,213.48z"/>
		</g>
		<g class="st0">
			<g>
				<linearGradient id="SVGID_62_" gradientUnits="userSpaceOnUse" x1="170.1611" y1="461.7272" x2="569.4526" y2="62.4357">
					<stop  offset="0" style="stop-color:#FFFFFF"/>
					<stop  offset="0.3581" style="stop-color:#939598"/>
					<stop  offset="0.5361" style="stop-color:#A2A4A6"/>
					<stop  offset="0.662" style="stop-color:#A7A9AC"/>
					<stop  offset="1" style="stop-color:#FFFFFF"/>
				</linearGradient>
				<path class="st60" d="M436.34-70.43c-17.55,40.94-33,82.83-47.01,125.11c-13.9,41.95-26.15,84.46-36.74,127.37
					c-10.72,43.48-19.72,87.4-27.01,131.59c-7.2,43.62-12.7,87.51-16.49,131.56c-3.79,44.05-5.85,88.26-6.19,132.47
					c-0.04,5.57-0.02,11.14,0.08,16.71c0.01,0.43,0.34,0.42,0.35-0.01c0.65-44.56,1.63-88.99,5.03-133.45
					c3.38-44.24,8.5-88.35,15.32-132.2c6.78-43.59,15.26-86.92,25.41-129.85c10.25-43.35,22.17-86.29,35.76-128.7
					c13.47-42.06,28.62-83.57,45.34-124.45c2.12-5.17,4.25-10.34,6.39-15.5C436.68-70,436.53-70.86,436.34-70.43L436.34-70.43z"/>
			</g>
			<g>
				<linearGradient id="SVGID_63_" gradientUnits="userSpaceOnUse" x1="154.1836" y1="532.3098" x2="611.4089" y2="75.0844">
					<stop  offset="0" style="stop-color:#FFFFFF"/>
					<stop  offset="0.3581" style="stop-color:#939598"/>
					<stop  offset="0.5361" style="stop-color:#A2A4A6"/>
					<stop  offset="0.662" style="stop-color:#A7A9AC"/>
					<stop  offset="1" style="stop-color:#FFFFFF"/>
				</linearGradient>
				<path class="st61" d="M451.32-84.93c-21.36,46.91-39.62,95.39-55.91,144.28c-16.34,49.04-30.36,98.84-42.04,149.19
					c-11.68,50.36-21.02,101.27-27.97,152.51c-7.01,51.65-11.6,103.62-13.72,155.7c-2.11,51.9-1.8,103.9,1.02,155.76
					c0.35,6.39,0.74,12.77,1.16,19.16c0.05,0.81,0.74,0.82,0.69-0.02c-3.38-51.3-4.37-102.74-2.93-154.14
					c1.46-52.04,5.39-104,11.74-155.67c6.32-51.44,15.05-102.59,26.15-153.21c11.14-50.87,24.68-101.22,40.55-150.82
					c15.68-48.99,33.66-97.23,53.81-144.55c2.52-5.92,5.06-11.83,7.59-17.74C451.51-84.6,451.39-85.09,451.32-84.93L451.32-84.93z"
					/>
			</g>
			<g>
				<linearGradient id="SVGID_64_" gradientUnits="userSpaceOnUse" x1="150.4357" y1="577.8869" x2="643.5365" y2="84.7861">
					<stop  offset="0" style="stop-color:#FFFFFF"/>
					<stop  offset="0.3581" style="stop-color:#939598"/>
					<stop  offset="0.5361" style="stop-color:#A2A4A6"/>
					<stop  offset="0.662" style="stop-color:#A7A9AC"/>
					<stop  offset="1" style="stop-color:#FFFFFF"/>
				</linearGradient>
				<path class="st62" d="M467.34-91.32c-24.12,50.97-45.02,103.55-63.28,156.89c-18.21,53.19-33.6,107.32-46.1,162.13
					c-12.57,55.09-22.24,110.83-28.98,166.93c-6.71,55.85-10.52,112.05-11.35,168.29c-0.82,56.49,1.29,113.05,6.55,169.31
					c0.66,7.09,1.38,14.16,2.13,21.24c0.11,0.99,0.81,0.28,0.73-0.41c-5.9-56.07-8.88-112.42-8.82-168.8
					c0.06-56.37,3.11-112.74,9.09-168.78c5.96-55.81,14.85-111.31,26.59-166.19c11.8-55.15,26.5-109.69,43.99-163.32
					c17.5-53.65,37.9-106.35,61.04-157.82c2.83-6.28,5.69-12.55,8.56-18.81C467.57-90.83,467.44-91.54,467.34-91.32L467.34-91.32z"
					/>
			</g>
			<g>
				<linearGradient id="SVGID_65_" gradientUnits="userSpaceOnUse" x1="148.7776" y1="611.6315" x2="678.5911" y2="81.8179">
					<stop  offset="0" style="stop-color:#FFFFFF"/>
					<stop  offset="0.3581" style="stop-color:#939598"/>
					<stop  offset="0.5361" style="stop-color:#A2A4A6"/>
					<stop  offset="0.662" style="stop-color:#A7A9AC"/>
					<stop  offset="1" style="stop-color:#FFFFFF"/>
				</linearGradient>
				<path class="st63" d="M486.42-110.24c-28.17,54.74-52.56,111.5-73.5,169.38c-20.79,57.47-38.02,116.21-51.66,175.78
					c-13.58,59.34-23.6,119.5-30,180.03c-6.43,60.8-9.19,122-8.22,183.13c0.97,61.13,5.67,122.2,14.21,182.73
					c1.05,7.46,2.17,14.91,3.33,22.35c0.16,1,0.84,0.29,0.73-0.42c-9.36-60.28-15.03-121.12-16.93-182.1
					c-1.9-60.97-0.07-122.04,5.42-182.79c5.52-61.03,14.73-121.72,27.57-181.64c12.78-59.67,29.16-118.57,49.01-176.27
					c19.87-57.74,43.28-114.27,70.13-169.12c3.32-6.78,6.69-13.54,10.09-20.29C486.71-109.65,486.55-110.5,486.42-110.24
					L486.42-110.24z"/>
			</g>
			<g>
				<linearGradient id="SVGID_66_" gradientUnits="userSpaceOnUse" x1="154.3798" y1="627.4894" x2="694.8123" y2="87.0568">
					<stop  offset="0" style="stop-color:#FFFFFF"/>
					<stop  offset="0.3581" style="stop-color:#939598"/>
					<stop  offset="0.5361" style="stop-color:#A2A4A6"/>
					<stop  offset="0.662" style="stop-color:#A7A9AC"/>
					<stop  offset="1" style="stop-color:#FFFFFF"/>
				</linearGradient>
				<path class="st64" d="M504.61-103.05C476.44-48.41,451.86,8.1,430.55,65.76c-21.44,58-39.47,117.25-53.99,177.36
					c-14.47,59.88-25.48,120.59-32.98,181.73c-7.5,61.14-11.47,122.71-11.86,184.31c-0.39,61.86,2.85,123.75,9.79,185.22
					c0.86,7.57,1.77,15.14,2.74,22.7c0.13,0.99,0.81,0.28,0.72-0.41c-7.74-60.97-11.9-122.38-12.44-183.84
					c-0.54-61.72,2.54-123.47,9.17-184.84c6.6-61.11,16.72-121.83,30.29-181.78c13.64-60.23,30.73-119.69,51.23-177.94
					c20.42-58.04,44.24-114.88,71.34-170.11c3.38-6.88,6.76-13.76,10.2-20.61C504.83-102.61,504.71-103.25,504.61-103.05
					L504.61-103.05z"/>
			</g>
			<g>
				<linearGradient id="SVGID_67_" gradientUnits="userSpaceOnUse" x1="159.556" y1="630.3008" x2="709.5359" y2="80.3209">
					<stop  offset="0" style="stop-color:#FFFFFF"/>
					<stop  offset="0.3581" style="stop-color:#939598"/>
					<stop  offset="0.5361" style="stop-color:#A2A4A6"/>
					<stop  offset="0.662" style="stop-color:#A7A9AC"/>
					<stop  offset="1" style="stop-color:#FFFFFF"/>
				</linearGradient>
				<path class="st65" d="M523.49-105.64c-28.62,54.59-53.26,111.48-75.1,169.1c-21.9,57.8-40.57,116.81-56,176.66
					c-15.36,59.62-27.5,120.07-36.36,180.99c-8.89,61.2-14.47,122.88-16.66,184.68c-2.21,62.27-0.99,124.67,3.82,186.79
					c0.59,7.66,1.24,15.32,1.94,22.98c0.08,0.85,0.82,0.86,0.74-0.02c-5.46-61.25-7.63-122.77-6.38-184.25
					c1.25-61.67,5.88-123.27,13.83-184.44c7.99-61.45,19.33-122.47,33.94-182.69c14.55-59.97,32.38-119.14,53.31-177.2
					c21.05-58.37,45.33-115.57,72.73-171.25c3.41-6.94,6.87-13.86,10.31-20.78C523.69-105.22,523.59-105.83,523.49-105.64
					L523.49-105.64z"/>
			</g>
			<g>
				<linearGradient id="SVGID_68_" gradientUnits="userSpaceOnUse" x1="166.8862" y1="632.2016" x2="725.9224" y2="73.1654">
					<stop  offset="0" style="stop-color:#FFFFFF"/>
					<stop  offset="0.3581" style="stop-color:#939598"/>
					<stop  offset="0.5361" style="stop-color:#A2A4A6"/>
					<stop  offset="0.662" style="stop-color:#A7A9AC"/>
					<stop  offset="1" style="stop-color:#FFFFFF"/>
				</linearGradient>
				<path class="st66" d="M546.23-106.44c-28.48,54.5-54.09,110.49-76.67,167.7c-22.71,57.57-42.41,116.32-59.06,175.92
					c-16.71,59.82-30.33,120.5-40.81,181.72c-10.44,61.01-17.77,122.55-21.88,184.32c-4.1,61.49-5.04,123.19-2.73,184.77
					c0.29,7.69,0.63,15.38,1.03,23.06c0.05,0.94,0.84,0.94,0.8-0.02c-2.99-61.97-2.99-124.04,0.38-186
					c3.35-61.46,9.87-122.75,19.5-183.54c9.61-60.73,22.34-120.97,38.09-180.41c15.75-59.45,34.55-118.08,56.27-175.61
					c21.95-58.13,46.91-115.08,74.74-170.63c3.47-6.92,6.92-13.84,10.48-20.72C546.43-106.04,546.32-106.63,546.23-106.44
					L546.23-106.44z"/>
			</g>
			<g>
				<linearGradient id="SVGID_69_" gradientUnits="userSpaceOnUse" x1="172.6138" y1="642.2654" x2="746.5785" y2="68.3007">
					<stop  offset="0" style="stop-color:#FFFFFF"/>
					<stop  offset="0.3581" style="stop-color:#939598"/>
					<stop  offset="0.5361" style="stop-color:#A2A4A6"/>
					<stop  offset="0.662" style="stop-color:#A7A9AC"/>
					<stop  offset="1" style="stop-color:#FFFFFF"/>
				</linearGradient>
				<path class="st67" d="M572.67-105.51c-30.53,53.92-57.53,110.03-81.8,167.02c-24.64,57.87-46.23,117.03-64.71,177.15
					c-18.43,59.92-33.78,120.79-45.95,182.29c-12.07,60.96-21.04,122.54-26.82,184.41c-5.81,62.15-8.39,124.59-7.68,187.01
					c0.09,7.69,0.24,15.38,0.43,23.07c0.02,0.8,0.69,0.79,0.67-0.02c-1.43-62.55,0.32-125.14,5.38-187.5
					c5.03-62.08,13.26-123.9,24.65-185.13c11.35-61.03,25.8-121.48,43.29-181.04c17.55-59.77,38.17-118.63,61.73-176.29
					c23.69-57.99,50.39-114.73,79.95-169.96c3.65-6.82,7.33-13.61,11.02-20.41C572.89-105.07,572.78-105.71,572.67-105.51
					L572.67-105.51z"/>
			</g>
			<g>
				<linearGradient id="SVGID_70_" gradientUnits="userSpaceOnUse" x1="183.6352" y1="650.2346" x2="761.6577" y2="72.2121">
					<stop  offset="0" style="stop-color:#FFFFFF"/>
					<stop  offset="0.3581" style="stop-color:#939598"/>
					<stop  offset="0.5361" style="stop-color:#A2A4A6"/>
					<stop  offset="0.662" style="stop-color:#A7A9AC"/>
					<stop  offset="1" style="stop-color:#FFFFFF"/>
				</linearGradient>
				<path class="st68" d="M596.38-92.94c-19.1,23.72-34.31,50.3-48.02,77.41c-13.96,27.61-26.8,55.83-39.09,84.22
					c-24.82,57.33-46.63,115.95-65.56,175.48c-18.71,58.85-34.6,118.58-47.73,178.92c-13.2,60.66-23.66,121.92-31.42,183.51
					c-7.72,61.33-12.78,122.99-15.25,184.76c-0.31,7.78-0.58,15.56-0.81,23.34c-0.03,0.88,0.7,0.85,0.73-0.02
					c1.85-62.21,6.27-124.33,13.42-186.16c7.11-61.55,16.89-122.79,29.44-183.47c12.48-60.4,27.72-120.25,45.74-179.24
					c18.17-59.45,39.2-118.02,63.07-175.42c12.03-28.93,24.79-57.57,38.34-85.82c12.94-26.99,26.8-53.64,43.76-78.36
					c4.32-6.3,8.85-12.45,13.53-18.48C596.66-92.42,596.56-93.16,596.38-92.94L596.38-92.94z"/>
			</g>
			<g>
				<linearGradient id="SVGID_71_" gradientUnits="userSpaceOnUse" x1="188.796" y1="652.7942" x2="778.0445" y2="63.5457">
					<stop  offset="0" style="stop-color:#FFFFFF"/>
					<stop  offset="0.3581" style="stop-color:#939598"/>
					<stop  offset="0.5361" style="stop-color:#A2A4A6"/>
					<stop  offset="0.662" style="stop-color:#A7A9AC"/>
					<stop  offset="1" style="stop-color:#FFFFFF"/>
				</linearGradient>
				<path class="st69" d="M617.34-97.05C582.92-48.82,553.47,3.08,527.76,56.42c-26.05,54.05-48.07,110-66.81,166.98
					c-19.18,58.3-34.93,117.69-48.17,177.61c-14,63.35-25.22,127.28-34.88,191.43c-9.8,65.03-18,130.28-25.89,195.56
					c-0.99,8.2-1.96,16.4-2.93,24.6c-0.07,0.61,0.53,1.21,0.63,0.33c7.88-64.68,15.69-129.37,24.99-193.87
					c9.33-64.67,20.06-129.16,33.47-193.12C421,364.78,436.25,304.1,455,244.48c17.76-56.49,38.61-112.04,63.25-165.9
					C543.06,24.36,571.78-28,604.77-77.67c4.18-6.3,8.43-12.56,12.71-18.79C617.58-96.6,617.48-97.25,617.34-97.05L617.34-97.05z"/>
			</g>
			<g>
				<linearGradient id="SVGID_72_" gradientUnits="userSpaceOnUse" x1="199.9434" y1="652.7737" x2="793.0754" y2="59.6417">
					<stop  offset="0" style="stop-color:#FFFFFF"/>
					<stop  offset="0.3581" style="stop-color:#939598"/>
					<stop  offset="0.5361" style="stop-color:#A2A4A6"/>
					<stop  offset="0.662" style="stop-color:#A7A9AC"/>
					<stop  offset="1" style="stop-color:#FFFFFF"/>
				</linearGradient>
				<path class="st70" d="M638.42-94.91C604-45.88,573.75,6.07,546.99,59.64c-26.49,53.04-49.54,107.77-69.57,163.56
					c-20.72,57.7-38.22,116.53-53.14,175.99c-15.7,62.54-28.56,125.78-39.43,189.33c-11.02,64.44-20.03,129.2-27.66,194.12
					c-0.95,8.12-1.89,16.24-2.81,24.36c-0.03,0.27,0.23,0.55,0.28,0.15c7.66-63.98,16.13-127.88,26.44-191.49
					c10.44-64.39,22.81-128.48,37.97-191.93c14.44-60.4,31.41-120.22,51.62-178.95C490,188.74,512.2,133.66,537.82,80.2
					c25.79-53.83,55.06-106.03,88.12-155.73c4.17-6.28,8.36-12.54,12.63-18.76C638.66-94.44,638.56-95.11,638.42-94.91L638.42-94.91
					z"/>
			</g>
			<g>
				<linearGradient id="SVGID_73_" gradientUnits="userSpaceOnUse" x1="277.4845" y1="511.8577" x2="766.0708" y2="23.2714">
					<stop  offset="0" style="stop-color:#FFFFFF"/>
					<stop  offset="0.3581" style="stop-color:#939598"/>
					<stop  offset="0.5361" style="stop-color:#A2A4A6"/>
					<stop  offset="0.662" style="stop-color:#A7A9AC"/>
					<stop  offset="1" style="stop-color:#FFFFFF"/>
				</linearGradient>
				<path class="st71" d="M654.86-87.88c-32.43,34.19-58.18,74.34-80.16,115.86c-22.97,43.38-42.39,88.68-60.69,134.2
					c-19.1,47.53-36.42,95.77-51.93,144.59c-15.4,48.46-29.02,97.48-40.84,146.94c-11.81,49.46-21.89,99.37-29.89,149.59
					c-1.01,6.36-2,12.72-2.95,19.09c-0.07,0.47,0.37,0.95,0.48,0.26c7.83-50.32,17.38-100.38,28.76-150.02
					c11.35-49.5,24.52-98.58,39.46-147.12c14.99-48.7,31.77-96.85,50.29-144.32c17.9-45.89,36.99-91.54,59.07-135.59
					c21.28-42.46,45.98-83.53,76.98-119.67c3.77-4.39,7.62-8.71,11.53-12.97C655.14-87.22,654.98-88.01,654.86-87.88L654.86-87.88z"
					/>
			</g>
		</g>
	</g>
</g>
<g id="text">
</g>
</svg>
